<svg width="220" height="115" viewBox="0 0 220 115" fill="none" xmlns="http://www.w3.org/2000/svg">
<g opacity="0.6">
<path d="M136.524 55.2834C136.524 55.2834 144.107 -2.55636 159.751 0.0879847C175.395 2.73233 146.067 37.7214 144.394 54.629L136.524 55.2834Z" fill="#D3E3FF"/>
</g>
<path d="M142.684 44.1497C142.684 44.1497 170.854 -4.50429 186.427 3.78545C202.001 12.0752 158.872 32.1237 151.211 46.5515L142.684 44.1497Z" fill="#91AFCC"/>
<path d="M147.443 45.5355C152.553 35.4746 161.525 26.383 168.153 20.5274C175.337 14.1791 181.388 10.1641 181.448 10.1241L181.199 9.74841C181.139 9.78836 175.062 13.8205 167.853 20.1898C161.196 26.0711 152.181 35.2074 147.04 45.332L147.443 45.5355Z" fill="#082037"/>
<path d="M195.005 41.5121V41.5111C194.976 41.436 194.945 41.3637 194.91 41.2885L194.909 41.2876C194.677 40.7654 194.346 40.2413 193.904 39.7172C189.304 34.263 184.637 36.1996 179.251 37.0338C176.274 37.4951 172.032 33.7151 167.864 31.9125L167.851 31.9068H167.85C167.79 31.8831 167.734 31.8583 167.675 31.8326C167.295 31.6738 166.917 31.5321 166.541 31.4141C163.627 30.4895 160.822 30.871 158.59 34.7281V34.73C158.589 34.73 158.589 34.731 158.589 34.731C158.537 34.8185 158.487 34.906 158.435 34.9916V34.9935C154.936 40.9537 152.537 41.8783 149.324 42.1475H149.323C149.143 42.1637 148.962 42.176 148.775 42.1884H148.774C147.29 42.2816 145.622 42.293 143.596 42.6174H143.595C143.517 42.6297 143.44 42.6421 143.362 42.6554C143.321 42.663 143.28 42.6706 143.238 42.6773C142.87 42.741 142.488 42.8171 142.094 42.9046C141.243 43.0958 140.441 43.2984 139.745 43.5867C139.239 43.7959 138.787 44.0518 138.416 44.3819C136.807 45.8153 135.727 47.3591 135.093 48.9514C134.221 51.1345 134.188 53.4078 134.778 55.6146C138.038 55.8077 141.133 55.9799 144.082 56.1311C144.347 56.1454 144.611 56.1577 144.874 56.172C145.172 56.1872 145.47 56.2006 145.764 56.2158C146.453 56.25 147.133 56.2824 147.807 56.3137C152.489 56.5325 156.795 56.6895 160.818 56.7741C167.903 56.9254 170.367 62.6231 176.03 61.2581C177.589 60.8824 180.2 56.055 180.349 55.8315L180.35 55.8296C180.394 55.764 180.438 55.7002 180.483 55.6355C181.417 54.2915 182.616 53.1643 184.438 52.6431C186.372 52.0923 188.348 51.2457 190.079 50.1918C190.079 50.1909 190.08 50.1909 190.08 50.1909C190.223 50.1043 190.364 50.0149 190.504 49.9245C193.934 47.7111 196.246 44.6672 195.005 41.5121Z" fill="#D3E3FF"/>
<g opacity="0.5">
<path d="M195.025 41.7403C187.333 42.4252 180.542 43.5428 174.626 44.8726C174.433 44.9145 174.243 44.9582 174.053 45.002C158.009 48.6784 148.493 53.8976 144.875 56.171C144.612 56.1567 144.348 56.1444 144.083 56.1301C146.687 54.436 153.668 50.3667 165.415 46.8131C165.568 46.7674 165.719 46.7208 165.873 46.6761C173.532 44.3903 183.176 42.3357 194.911 41.2866C194.935 41.2837 194.96 41.2818 194.986 41.2799L195.007 41.5101V41.511L195.025 41.7403Z" fill="#D3E3FF"/>
<path d="M164.425 42.1359C159.456 38.2274 158.409 34.9344 158.367 34.7965L158.81 34.6614C158.819 34.6937 159.868 37.964 164.711 41.7726L164.425 42.1359Z" fill="#D3E3FF"/>
<path d="M165.565 47.0546C164.094 44.8212 163.999 41.4711 165.289 37.3647C166.256 34.2895 167.674 31.8354 167.688 31.8107L168.088 32.0428C168.032 32.1388 162.569 41.667 165.951 46.8016L165.565 47.0546Z" fill="#D3E3FF"/>
<path d="M174.874 45.6393C174.286 45.2094 173.963 44.9259 173.949 44.9126L174.258 44.5692C174.326 44.6291 181.108 50.5922 190.482 49.6933L190.526 50.1528C182.973 50.8776 177.07 47.2421 174.874 45.6393Z" fill="#D3E3FF"/>
<path d="M180.189 55.994C177.889 53.7473 177.12 51.4016 176.881 49.8293C176.62 48.1181 176.905 46.951 176.917 46.9015L177.366 47.0137C177.354 47.0584 176.301 51.55 180.513 55.664L180.189 55.994Z" fill="#D3E3FF"/>
</g>
<path d="M141.489 4.74143C141.381 2.60978 142.027 1.94109 142.865 1.89924C143.701 1.85738 144.412 2.45664 144.52 4.58924C144.716 8.473 143.295 10.4258 143.295 10.4258C143.295 10.4258 141.688 8.68131 141.489 4.74143Z" fill="#D3E3FF"/>
<path d="M183.854 29.856C186.095 29.4727 186.883 30.0691 187.034 30.9452C187.184 31.8222 186.64 32.6469 184.399 33.0302C180.318 33.7293 178.073 32.4795 178.073 32.4795C178.073 32.4795 179.714 30.5656 183.854 29.856Z" fill="#D3E3FF"/>
<path d="M177.154 26.3565C178.362 24.5949 179.281 24.4532 179.973 24.9259C180.664 25.3987 180.866 26.3052 179.659 28.0668C177.46 31.2762 175.145 31.9724 175.145 31.9724C175.145 31.9724 174.924 29.6125 177.154 26.3565Z" fill="#D3E3FF"/>
<path d="M51.7364 31.0621C50.7198 31.8335 50.1719 31.7374 49.8699 31.336C49.5669 30.9346 49.6241 30.3801 50.6407 29.6087C52.4929 28.2037 53.9354 28.2513 53.9354 28.2513C53.9354 28.2513 53.6153 29.6362 51.7364 31.0621Z" fill="#D3E3FF"/>
<path d="M54.7024 60.8605L54.4604 60.8672C54.4594 60.8301 54.3184 57.0661 52.4243 51.748C50.676 46.8417 47.0335 39.5707 39.6104 32.7953L39.7724 32.6155C47.2364 39.428 50.898 46.7418 52.6549 51.6776C54.5604 57.029 54.7005 60.8234 54.7024 60.8605Z" fill="#D3E3FF"/>
<path d="M47.3298 41.3805L47.1126 41.274C50.937 33.3581 47.044 24.7345 47.004 24.6479L47.2231 24.5461C47.2631 24.6337 51.2048 33.359 47.3298 41.3805Z" fill="#D3E3FF"/>
<path d="M43.2538 37.8879C40.8176 38.1704 38.8301 37.1574 38.8072 37.145L38.9177 36.9301C38.9434 36.9434 41.4893 38.237 44.3133 37.4313L44.38 37.6644C43.9979 37.7728 43.6206 37.8451 43.2538 37.8879Z" fill="#D3E3FF"/>
<path d="M39.2912 31.4702C40.6966 32.4737 40.8805 33.1043 40.5918 33.5133C40.3031 33.9224 39.6504 33.9557 38.2451 32.9521C35.684 31.1239 34.9694 29.4993 34.9694 29.4993C34.9694 29.4993 36.693 29.6153 39.2912 31.4702Z" fill="#D3E3FF"/>
<path d="M39.3579 36.2907C40.9976 36.8234 41.3626 37.3694 41.2101 37.8469C41.0577 38.3253 40.4469 38.5546 38.8072 38.0219C35.8202 37.0526 34.6521 35.7181 34.6521 35.7181C34.6521 35.7181 36.3271 35.3072 39.3579 36.2907Z" fill="#D3E3FF"/>
<path d="M45.2518 33.7634C45.6882 34.9705 45.4366 35.467 44.966 35.6363C44.4962 35.8066 43.9846 35.585 43.5492 34.3779C42.7546 32.1797 43.2224 30.8099 43.2224 30.8099C43.2224 30.8099 44.4457 31.5328 45.2518 33.7634Z" fill="#D3E3FF"/>
<path d="M47.6128 23.5113C48.2092 25.1359 48.0063 25.758 47.5366 25.9302C47.0668 26.1024 46.5095 25.759 45.913 24.1343C44.8269 21.1751 45.1508 19.4335 45.1508 19.4335C45.1508 19.4335 46.5104 20.5093 47.6128 23.5113Z" fill="#D3E3FF"/>
<path d="M57.9419 71.726C57.9419 71.726 27.4625 34.7441 15.589 43.8805C3.71547 53.0168 42.6793 63.8681 51.1381 74.9315L57.9419 71.726Z" fill="#D3E3FF"/>
<path d="M54.1517 73.5523C48.4484 65.8057 39.6457 59.4107 33.2659 55.4109C26.3487 51.0744 20.713 48.5404 20.6568 48.5157L20.8121 48.1647C20.8683 48.1894 26.5288 50.7339 33.4679 55.0856C39.8762 59.1035 48.7199 65.5298 54.4594 73.3249L54.1517 73.5523Z" fill="#D3E3FF"/>
<path d="M53.0884 94.1428C48.2692 94.1476 53.4381 98.9379 47.6785 99.2109C40.4641 98.7219 37.4343 95.4156 36.37 93.7928C35.8174 92.95 35.1724 92.171 34.4302 91.4938C32.1759 89.4363 31.5785 90.0336 24.7461 91.392C18.9494 92.541 18.151 87.4207 15.5966 83.7548C15.5509 83.6872 15.5032 83.6216 15.4556 83.555C14.4714 82.1986 13.2213 81.0667 11.3482 80.5692C9.36162 80.0422 7.32458 79.2156 5.53431 78.1684C5.38568 78.0818 5.23895 77.9933 5.09318 77.903C1.54122 75.7047 -0.889313 72.6295 0.309282 69.3735C0.336912 69.2965 0.367401 69.2194 0.399795 69.1424C0.626556 68.6031 0.953359 68.059 1.39259 67.5139C5.96687 61.8362 10.7755 63.7262 16.295 64.4767C19.3467 64.8905 23.5961 60.9287 27.816 59.0016C27.876 58.974 27.937 58.9464 27.998 58.9198C31.3489 57.4369 34.6693 57.2952 37.3418 61.7097C37.3418 61.7106 37.3428 61.7106 37.3428 61.7116C37.3971 61.801 37.4514 61.8904 37.5048 61.977C43.473 71.6973 46.237 68.0999 54.3689 69.7588C55.881 70.0689 57.2444 70.417 58.1572 71.2008C66.6664 78.5022 61.3013 88.9493 53.0884 94.1428Z" fill="#91AFCC"/>
<path d="M53.5677 84.5282L53.8478 84.1486C53.6801 84.024 36.6644 71.6765 0.322632 69.1377L0.291191 69.6095C36.4967 72.1397 53.4009 84.4045 53.5677 84.5282Z" fill="#082037"/>
<path d="M31.547 69.4115C36.5339 65.3099 37.5276 61.916 37.5676 61.7743L37.1132 61.6449C37.1036 61.6782 36.1061 65.0493 31.2469 69.0453L31.547 69.4115Z" fill="#082037"/>
<path d="M30.4942 74.4729C31.9463 72.1567 31.9682 68.7219 30.5571 64.5414C29.5014 61.411 27.9979 58.9245 27.9827 58.8998L27.5797 59.1452C27.6388 59.2422 33.4307 68.895 30.0931 74.2218L30.4942 74.4729Z" fill="#082037"/>
<path d="M20.955 73.2069C21.5467 72.7551 21.8687 72.4583 21.884 72.444L21.561 72.0978C21.4933 72.1606 14.701 78.4024 5.10937 77.6671L5.07507 78.1389C12.8031 78.7315 18.7503 74.8905 20.955 73.2069Z" fill="#082037"/>
<path d="M15.7614 83.9175C18.0595 81.5708 18.7922 79.1529 19.0009 77.5377C19.2286 75.7799 18.9113 74.59 18.898 74.5396L18.4416 74.6632C18.454 74.7089 19.6307 79.2889 15.4222 83.5855L15.7614 83.9175Z" fill="#082037"/>
<path d="M13.3176 58.7028C11.8017 58.1026 11.5397 57.4425 11.7731 56.848C12.0065 56.2535 12.6458 55.9501 14.1617 56.5503C16.9229 57.6432 17.8356 59.2479 17.8356 59.2479C17.8356 59.2479 16.1187 59.8119 13.3176 58.7028Z" fill="#D3E3FF"/>
<path d="M114.004 119.351C172.004 119.351 219.021 112.758 219.021 104.625C219.021 96.4925 172.004 89.8997 114.004 89.8997C56.0049 89.8997 8.98719 96.4925 8.98719 104.625C8.98719 112.758 56.0049 119.351 114.004 119.351Z" fill="#D3E3FF"/>
<path d="M169.959 41.5434C155.395 27.2535 135.425 18.4387 113.393 18.4387C97.9213 18.4387 83.4668 22.7848 71.1874 30.323C65.1277 34.0404 59.5978 38.5367 54.7367 43.6703C41.0672 58.1048 32.6866 77.5826 32.6866 99.0123H85.1408C85.1408 91.7194 87.9115 85.0743 92.46 80.0672C94.6381 77.6701 97.222 75.6507 100.105 74.1126C104.065 72.0019 108.589 70.8053 113.392 70.8053H113.393C122.453 70.8053 130.516 75.0629 135.686 81.6833C139.419 86.465 141.643 92.4785 141.643 99.0123H194.098C194.099 76.5097 184.859 56.1615 169.959 41.5434Z" fill="#91AFCC"/>
<path d="M54.7367 43.6702L92.46 80.068C87.9114 85.0751 85.1408 91.7192 85.1408 99.0131H32.6866C32.6866 77.5824 41.0672 58.1047 54.7367 43.6702Z" fill="#204E7C"/>
<path d="M113.382 18.4366V70.8042C105.081 70.8042 97.6184 74.3769 92.4495 80.0651L54.7262 43.6692C69.4381 28.1313 90.2772 18.4366 113.382 18.4366Z" fill="#2A69A8"/>
<path d="M169.959 41.5433L135.687 81.6841C130.517 75.0637 122.453 70.8061 113.394 70.8061L113.393 18.4386C135.425 18.4386 155.395 27.2534 169.959 41.5433Z" fill="#638AB0"/>
<path d="M151.064 99.0122H150.942C150.942 89.1615 147.099 79.9016 140.123 72.9369C133.146 65.9731 123.87 62.1378 114.004 62.1378C104.138 62.1378 94.8629 65.974 87.8857 72.9369C80.9095 79.9016 77.0669 89.1615 77.0669 99.0122H76.944C76.944 89.1292 80.799 79.8388 87.799 72.8512C94.7981 65.8628 104.105 62.0151 114.003 62.0151C123.902 62.0151 133.208 65.8628 140.208 72.8512C147.209 79.8388 151.064 89.1292 151.064 99.0122Z" fill="#082037"/>
<path d="M132.532 99.0407H95.4784C95.4784 88.8248 103.774 80.5446 114.005 80.5446C124.236 80.5436 132.532 88.8248 132.532 99.0407Z" fill="#204E7C"/>
<path d="M93.227 49.9833L110.526 91.7136C111.441 93.9223 114.055 94.8763 116.181 93.7777C118.024 92.8255 118.724 90.5483 117.734 88.7277L96.0063 49.2176C95.7786 48.8001 94.62 46.2404 93.5357 46.6636C92.6125 46.6636 92.8736 49.132 93.227 49.9833Z" fill="#082037"/>
<path d="M73.1082 41.4871C72.4231 41.9408 72.0849 42.1701 71.4151 42.6362C71.5627 43.0804 71.6361 43.303 71.7809 43.7481C71.3798 44.0287 71.1807 44.1705 70.7862 44.4558C70.126 42.2547 69.7868 41.1571 69.0912 38.9645C69.4571 38.7096 69.641 38.5821 70.0116 38.3301C72.1344 39.5438 73.1625 40.1811 75.1452 41.5071C74.726 41.7725 74.5173 41.9066 74.1029 42.1777C73.7084 41.899 73.5093 41.7611 73.1082 41.4871ZM71.1149 41.7373C71.5828 41.4129 71.8181 41.2531 72.2935 40.9345C71.557 40.4437 71.1845 40.2011 70.428 39.7245C70.7062 40.5293 70.8444 40.9316 71.1149 41.7373Z" fill="white"/>
<path d="M76.359 39.1681C75.8588 37.5482 75.6016 36.7387 75.0718 35.1246C75.5454 34.8459 75.7826 34.7079 76.2618 34.4349C76.843 36.6455 77.1241 37.7527 77.6643 39.97C77.2394 40.2192 77.0288 40.3457 76.6087 40.5997C74.6879 39.21 73.6922 38.5394 71.6313 37.2534C72.0849 36.9594 72.3126 36.8129 72.7718 36.5247C74.2458 37.5558 74.9632 38.0847 76.359 39.1681Z" fill="white"/>
<path d="M81.7051 35.0598C80.8638 35.485 80.4474 35.7019 79.6233 36.1451C79.952 36.6379 80.1139 36.8842 80.435 37.3798C81.3926 36.868 81.8775 36.6188 82.8589 36.1309C83.0513 36.4419 83.1466 36.5979 83.3362 36.9099C81.9271 37.6062 81.2354 37.9676 79.8767 38.7143C78.681 36.8728 78.0559 35.9606 76.7535 34.1581C78.1579 33.3686 78.8734 32.9862 80.3302 32.248C80.5389 32.5562 80.6437 32.7113 80.8495 33.0204C79.8472 33.5265 79.3527 33.7852 78.3751 34.316C78.6781 34.7507 78.8277 34.9685 79.124 35.4051C79.9529 34.958 80.3712 34.7392 81.2172 34.3103C81.4145 34.608 81.5117 34.7583 81.7051 35.0598Z" fill="white"/>
<path d="M84.9188 33.9213C84.5606 34.0858 84.3814 34.1695 84.026 34.3379C84.451 35.0304 84.6596 35.3785 85.0703 36.0748C84.6301 36.2812 84.411 36.3858 83.9746 36.597C82.8379 34.7051 82.2434 33.7672 80.9991 31.9104C81.8127 31.5052 82.2234 31.3074 83.0533 30.9193C83.3753 30.768 83.6849 30.6653 83.9822 30.6101C84.2785 30.555 84.5539 30.5474 84.8083 30.5892C85.0617 30.6301 85.2913 30.7195 85.4981 30.8574C85.7039 30.9944 85.8782 31.1818 86.0202 31.4187C86.126 31.5946 86.1974 31.762 86.2336 31.9209C86.2708 32.0807 86.2784 32.2338 86.2555 32.3803C86.2336 32.5268 86.185 32.6676 86.1117 32.8027C86.0383 32.9377 85.943 33.068 85.8258 33.1946C86.7691 33.7634 87.234 34.0535 88.1506 34.6432C88.1611 34.6623 88.1659 34.6718 88.1763 34.6898C87.6895 34.8963 87.4475 35.0009 86.9673 35.213C86.1584 34.6879 85.7487 34.4292 84.9188 33.9213ZM83.5382 33.5493C83.9003 33.3772 84.0823 33.2925 84.4472 33.1232C84.5958 33.0547 84.7159 32.9777 84.8073 32.893C84.8988 32.8084 84.9636 32.718 85.0007 32.6219C85.0369 32.5259 85.0484 32.426 85.0341 32.3233C85.0198 32.2196 84.9798 32.1149 84.914 32.0084C84.7768 31.7839 84.592 31.6412 84.3633 31.5813C84.1337 31.5214 83.8641 31.5623 83.5573 31.7059C83.1905 31.8771 83.0066 31.9637 82.6426 32.1378C83.0056 32.7009 83.1847 32.9834 83.5382 33.5493Z" fill="white"/>
<path d="M91.4625 32.1501C90.6364 32.4602 90.2267 32.62 89.414 32.9472C89.4807 33.4114 89.5131 33.6435 89.5779 34.1087C89.09 34.3065 88.8471 34.4064 88.365 34.6099C88.1115 32.3233 87.9753 31.1799 87.6857 28.8951C88.1287 28.7144 88.3517 28.6259 88.7985 28.45C90.8136 30.0518 91.7836 30.8774 93.6434 32.5696C93.1394 32.7475 92.8888 32.8378 92.3895 33.0214C92.0217 32.6714 91.8369 32.4964 91.4625 32.1501ZM89.2777 32.0065C89.8446 31.7792 90.1305 31.6679 90.7041 31.4481C90.0162 30.8223 89.6665 30.5122 88.9576 29.8986C89.0881 30.7414 89.152 31.1637 89.2777 32.0065Z" fill="white"/>
<path d="M98.4473 30.2877C98.4092 30.3809 98.3482 30.4874 98.2634 30.6063C98.1786 30.7252 98.0595 30.8479 97.908 30.9744C97.7556 31.1009 97.565 31.2265 97.3373 31.3511C97.1096 31.4757 96.8342 31.5889 96.5112 31.6907C96.132 31.8105 95.7623 31.8686 95.3993 31.8648C95.0363 31.861 94.6933 31.7934 94.3694 31.6622C94.0454 31.5309 93.7472 31.3378 93.4728 31.081C93.1984 30.8241 92.9602 30.5045 92.7573 30.1203C92.6954 30.0023 92.6649 29.9443 92.602 29.8263C92.3981 29.442 92.2733 29.0806 92.2295 28.7401C92.1856 28.3995 92.2161 28.0894 92.3209 27.8079C92.4267 27.5273 92.6058 27.279 92.8592 27.065C93.1127 26.851 93.4309 26.6788 93.8149 26.5523C94.2093 26.421 94.5742 26.3506 94.9077 26.3392C95.2402 26.3278 95.5423 26.3668 95.8138 26.4543C96.0844 26.5418 96.3273 26.6721 96.5408 26.8453C96.7542 27.0184 96.939 27.2229 97.0943 27.4597C96.6046 27.6062 96.3607 27.6814 95.8748 27.8336C95.7852 27.7147 95.688 27.6119 95.5832 27.5263C95.4784 27.4398 95.3603 27.3751 95.2316 27.3323C95.1021 27.2895 94.9601 27.2695 94.8048 27.2743C94.6504 27.279 94.4799 27.3113 94.2941 27.3722C93.8682 27.513 93.6167 27.7546 93.5386 28.0951C93.4604 28.4357 93.5605 28.8675 93.833 29.3907C93.8959 29.5115 93.9273 29.5714 93.9892 29.6932C94.2589 30.2173 94.5761 30.574 94.9439 30.7661C95.3117 30.9573 95.7204 30.9801 96.1739 30.8346C96.3197 30.788 96.4436 30.7395 96.5446 30.6891C96.6456 30.6387 96.7285 30.5892 96.7942 30.5407C96.8599 30.4922 96.9123 30.4456 96.9495 30.4009C96.9876 30.3562 97.0162 30.3143 97.0362 30.2763C96.8695 29.9262 96.7856 29.7521 96.6151 29.4021C96.1654 29.5419 95.9415 29.6123 95.4956 29.7559C95.3431 29.4506 95.2669 29.2975 95.1125 28.9921C96.0529 28.6868 96.5274 28.5384 97.484 28.254C97.8785 29.0663 98.0709 29.4725 98.4473 30.2877Z" fill="white"/>
<path d="M102.435 27.4484C101.448 27.689 100.958 27.8146 99.9851 28.0781C100.238 28.6288 100.363 28.9047 100.608 29.4564C101.739 29.1548 102.31 29.0112 103.46 28.7401C103.605 29.0854 103.677 29.2585 103.819 29.6038C102.167 29.9891 101.35 30.1983 99.7402 30.6473C98.8255 28.5936 98.3406 27.5711 97.3144 25.5393C98.977 25.0533 99.8193 24.825 101.524 24.4045C101.686 24.7498 101.766 24.9229 101.925 25.2692C100.752 25.5564 100.17 25.7077 99.017 26.0263C99.2533 26.5143 99.3696 26.7588 99.5992 27.2486C100.577 26.9823 101.069 26.8539 102.061 26.6104C102.213 26.9452 102.288 27.1136 102.435 27.4484Z" fill="white"/>
<path d="M169.215 55.1631C170.775 54.4993 171.554 54.1604 173.105 53.4679C173.431 53.9104 173.592 54.1322 173.913 54.5809C171.774 55.3858 170.701 55.7789 168.551 56.5437C168.26 56.1466 168.112 55.9501 167.816 55.5582C169.002 53.505 169.567 52.4458 170.635 50.2639C170.973 50.6849 171.143 50.8964 171.476 51.3237C170.602 52.8956 170.149 53.6635 169.215 55.1631Z" fill="white"/>
<path d="M178.663 66.972L181.235 66.7308L181.895 67.9372L177.947 68.0997L176.011 68.9988L175.462 67.8862L177.444 66.7433L179.19 63.2399L179.891 64.3977L178.663 66.972Z" fill="white"/>
<path d="M173.85 60.0596C173.34 59.2663 173.082 58.8744 172.557 58.1C172.1 58.4775 171.872 58.6639 171.412 59.0342C172.019 59.9342 172.317 60.391 172.903 61.3171C172.613 61.5405 172.468 61.6513 172.177 61.8719C171.34 60.5416 170.909 59.8906 170.027 58.6156C171.736 57.2373 172.579 56.5221 174.239 55.0416C175.168 56.3576 175.622 57.0302 176.506 58.4036C176.22 58.6427 176.077 58.7629 175.791 58.9993C175.184 58.0542 174.876 57.5888 174.248 56.6709C173.847 57.0168 173.645 57.188 173.242 57.5275C173.771 58.3062 174.032 58.6998 174.545 59.4974C174.269 59.7242 174.13 59.8362 173.85 60.0596Z" fill="white"/>
<path d="M175.312 63.1397C175.111 62.8002 175.01 62.6306 174.806 62.2943C174.161 62.7881 173.836 63.0313 173.185 63.5112C172.935 63.0945 172.808 62.8873 172.553 62.4749C174.319 61.1502 175.191 60.4626 176.91 59.0344C177.397 59.8022 177.636 60.1904 178.107 60.9761C178.29 61.2809 178.424 61.5784 178.509 61.8684C178.595 62.1575 178.631 62.4306 178.615 62.688C178.6 62.9443 178.535 63.1819 178.419 63.4017C178.304 63.6204 178.135 63.8131 177.914 63.9786C177.75 64.1018 177.591 64.1901 177.437 64.2424C177.281 64.2957 177.13 64.319 176.982 64.3113C176.834 64.3045 176.689 64.2706 176.547 64.2115C176.405 64.1524 176.266 64.071 176.128 63.9674C175.659 64.964 175.418 65.4563 174.925 66.4285C174.907 66.4409 174.898 66.4466 174.881 66.4589C174.626 65.9957 174.497 65.7657 174.237 65.3098C174.676 64.4513 174.892 64.0173 175.312 63.1397ZM175.54 61.7282C175.749 62.0707 175.851 62.243 176.057 62.5887C176.141 62.7295 176.23 62.841 176.323 62.9233C176.417 63.0056 176.513 63.0608 176.613 63.0879C176.712 63.1141 176.813 63.1152 176.913 63.0904C177.015 63.0656 177.115 63.0151 177.214 62.9387C177.423 62.7792 177.546 62.5807 177.582 62.3471C177.619 62.1126 177.55 61.8486 177.376 61.5581C177.168 61.2108 177.063 61.0367 176.852 60.6926C176.33 61.1114 176.067 61.3186 175.54 61.7282Z" fill="white"/>
<path d="M46.2532 79.7818C46.9973 80.0168 47.3689 80.1338 48.113 80.3687C47.9748 80.8053 47.9072 81.0231 47.7748 81.4626C45.6539 80.8253 44.5934 80.5076 42.4725 79.8703C42.7403 78.9828 42.8794 78.5414 43.17 77.6616C43.2805 77.3287 43.4244 77.0471 43.5997 76.816C43.775 76.5848 43.9722 76.4069 44.1904 76.2814C44.4076 76.1558 44.6392 76.0845 44.884 76.0664C45.1289 76.0483 45.3747 76.0845 45.6234 76.1739C45.8759 76.2652 46.0874 76.3927 46.2579 76.5572C46.4285 76.7218 46.5533 76.9158 46.6362 77.1403C46.7181 77.3648 46.7543 77.615 46.7467 77.8918C46.7391 78.1686 46.6819 78.4663 46.5762 78.785C46.4437 79.1835 46.3789 79.3833 46.2532 79.7818ZM45.3719 79.5041C45.4995 79.1008 45.5653 78.8991 45.6987 78.4967C45.7511 78.3369 45.7787 78.1923 45.7787 78.063C45.7796 77.9346 45.7587 77.8214 45.7148 77.7244C45.672 77.6273 45.6081 77.5455 45.5243 77.4771C45.4404 77.4095 45.3423 77.3553 45.2299 77.3172C45.1175 77.2782 45.0022 77.2592 44.8859 77.2592C44.7697 77.2583 44.6582 77.2821 44.5525 77.3296C44.4467 77.3772 44.3495 77.4523 44.2619 77.5541C44.1742 77.6559 44.1027 77.789 44.0484 77.9527C43.9122 78.3626 43.8465 78.569 43.715 78.9809C44.3771 79.1902 44.7087 79.2948 45.3719 79.5041Z" fill="white"/>
<path d="M48.6627 71.4093C49.0505 71.5786 49.3754 71.7841 49.6365 72.0248C49.8985 72.2654 50.0948 72.527 50.2272 72.8104C50.3596 73.0939 50.4273 73.3926 50.432 73.7084C50.4359 74.0242 50.3739 74.3419 50.2434 74.6643C50.1138 74.9868 49.9385 75.2598 49.7165 75.4843C49.4945 75.7088 49.2373 75.879 48.9448 75.9941C48.6523 76.1092 48.3274 76.1653 47.971 76.1596C47.6147 76.1549 47.2374 76.0797 46.8401 75.9342C46.7486 75.9009 46.7029 75.8838 46.6114 75.8505C46.217 75.705 45.8816 75.5185 45.6072 75.2874C45.3337 75.0562 45.1241 74.7966 44.9822 74.5064C44.8392 74.2163 44.7659 73.9043 44.7611 73.5714C44.7563 73.2385 44.823 72.897 44.9622 72.5527C45.1013 72.2074 45.2889 71.9154 45.5243 71.6785C45.7587 71.4417 46.0293 71.2676 46.3332 71.1563C46.6371 71.046 46.9677 71.0022 47.326 71.025C47.6842 71.0479 48.0549 71.1449 48.4407 71.3123C48.5284 71.3513 48.5732 71.3703 48.6627 71.4093ZM47.9596 72.4119C47.4241 72.1874 46.9754 72.117 46.6124 72.2036C46.2494 72.2901 45.9892 72.5241 45.8368 72.9037C45.6844 73.2822 45.7091 73.6313 45.9111 73.9443C46.1131 74.2572 46.4856 74.5169 47.0278 74.7252C47.1211 74.7614 47.1688 74.7794 47.2622 74.8156C47.5318 74.9193 47.7805 74.9849 48.0072 75.0125C48.234 75.0401 48.4369 75.0325 48.6161 74.9897C48.7942 74.9469 48.9476 74.8698 49.0753 74.7566C49.203 74.6444 49.303 74.4969 49.3754 74.3162C49.5212 73.9547 49.4945 73.6209 49.2944 73.3117C49.0934 73.0026 48.7275 72.7343 48.1921 72.5099C48.0987 72.4699 48.052 72.4499 47.9596 72.4119Z" fill="white"/>
<path d="M51.0628 66.3908C51.4382 66.5858 51.7478 66.8122 51.9927 67.07C52.2376 67.3277 52.4157 67.6017 52.5291 67.8937C52.6425 68.1848 52.6901 68.4882 52.673 68.8031C52.6558 69.1179 52.572 69.4318 52.4205 69.7448C52.269 70.0577 52.0765 70.3183 51.8393 70.5276C51.603 70.7369 51.3353 70.8891 51.0352 70.9842C50.735 71.0793 50.4082 71.1135 50.0528 71.084C49.6975 71.0555 49.3259 70.9556 48.94 70.7835C48.8514 70.7435 48.8066 70.7245 48.718 70.6845C48.334 70.5133 48.012 70.3041 47.7547 70.0558C47.4975 69.8075 47.306 69.5336 47.184 69.2349C47.0611 68.9362 47.0087 68.6195 47.0259 68.2866C47.043 67.9536 47.1326 67.6188 47.2946 67.283C47.4565 66.9482 47.6633 66.6695 47.9139 66.4479C48.1644 66.2272 48.4455 66.0712 48.7561 65.9808C49.0667 65.8914 49.4002 65.8696 49.7556 65.9162C50.111 65.9628 50.4749 66.0845 50.8484 66.2776C50.9332 66.3242 50.9761 66.3461 51.0628 66.3908ZM50.2939 67.3439C49.7746 67.0842 49.3316 66.9834 48.9638 67.0462C48.596 67.109 48.3207 67.3249 48.1435 67.6921C47.9653 68.0602 47.9672 68.4093 48.1473 68.7355C48.3274 69.0618 48.6818 69.3452 49.2087 69.5897C49.3002 69.6316 49.3449 69.6534 49.4364 69.6953C49.6984 69.817 49.9423 69.8988 50.1662 69.9416C50.3911 69.9845 50.594 69.9902 50.7751 69.9597C50.9561 69.9293 51.1142 69.8618 51.2486 69.7581C51.3839 69.6544 51.4934 69.5146 51.5782 69.3395C51.7478 68.9885 51.744 68.6537 51.5649 68.3313C51.3858 68.0088 51.038 67.7168 50.5188 67.4571C50.4282 67.4115 50.3835 67.3886 50.2939 67.3439Z" fill="white"/>
<path d="M53.0217 64.0746C52.8369 64.3999 52.7463 64.5626 52.5653 64.8898C53.2751 65.2807 53.6305 65.4757 54.3403 65.8667C54.1193 66.2671 54.0107 66.4678 53.7944 66.8721C51.8403 65.8324 50.8627 65.313 48.9076 64.2734C49.323 63.4953 49.5355 63.1091 49.9709 62.3415C50.1395 62.0438 50.3244 61.7955 50.5235 61.5967C50.7226 61.3979 50.9303 61.2543 51.1466 61.1658C51.3629 61.0764 51.5859 61.0431 51.8155 61.064C52.0451 61.085 52.2766 61.1668 52.512 61.3075C52.6863 61.4122 52.8292 61.5263 52.9426 61.649C53.056 61.7727 53.1436 61.9049 53.2056 62.0457C53.2675 62.1864 53.3066 62.3358 53.3228 62.4918C53.3399 62.6478 53.338 62.8104 53.3171 62.9807C54.3489 63.0092 54.8625 63.0302 55.8867 63.0863C55.9048 63.0967 55.9143 63.1025 55.9324 63.1139C55.678 63.5343 55.5523 63.7455 55.3046 64.1697C54.3946 64.1212 53.9383 64.1022 53.0217 64.0746ZM51.7564 64.4446C51.9412 64.1098 52.0346 63.9424 52.2233 63.6094C52.2995 63.4744 52.3509 63.346 52.3748 63.2252C52.3986 63.1034 52.3995 62.9912 52.3757 62.8875C52.3519 62.7838 52.3071 62.6896 52.2404 62.605C52.1737 62.5203 52.087 62.4471 51.9794 62.3843C51.7535 62.253 51.5363 62.2178 51.3286 62.2787C51.1209 62.3396 50.9351 62.5118 50.7741 62.7952C50.5826 63.1338 50.4873 63.3032 50.2996 63.6437C50.8837 63.9642 51.1743 64.125 51.7564 64.4446Z" fill="white"/>
<path d="M133.588 31.2228C133.489 31.2723 133.365 31.3198 133.214 31.3645C133.063 31.4092 132.884 31.4378 132.678 31.453C132.47 31.4673 132.238 31.4606 131.976 31.433C131.715 31.4045 131.426 31.3436 131.109 31.2485C130.737 31.1372 130.416 30.9821 130.142 30.7824C129.871 30.5817 129.66 30.3429 129.511 30.0652C129.36 29.7865 129.276 29.4735 129.262 29.1225C129.247 28.7715 129.313 28.3911 129.46 27.9792C129.506 27.8546 129.528 27.7918 129.574 27.6672C129.722 27.2563 129.922 26.9081 130.166 26.6237C130.41 26.3403 130.691 26.1186 131.006 25.9645C131.317 25.8114 131.661 25.7239 132.034 25.7049C132.403 25.6868 132.784 25.7372 133.177 25.859C133.58 25.9826 133.908 26.1367 134.16 26.3146C134.414 26.4944 134.6 26.6922 134.724 26.9081C134.849 27.1231 134.917 27.3571 134.927 27.6016C134.938 27.846 134.903 28.1009 134.822 28.3616C134.347 28.1961 134.108 28.1143 133.627 27.9573C133.66 27.8194 133.672 27.6872 133.666 27.5664C133.659 27.4456 133.626 27.3305 133.567 27.2258C133.509 27.1241 133.42 27.028 133.302 26.9452C133.186 26.8625 133.03 26.7902 132.844 26.7331C132.409 26.5999 132.021 26.6427 131.684 26.8558C131.345 27.0689 131.068 27.4532 130.856 28.0049C130.807 28.1314 130.783 28.1951 130.734 28.3226C130.525 28.8752 130.494 29.3261 130.624 29.6752C130.756 30.0252 131.047 30.264 131.496 30.4C131.641 30.4428 131.772 30.4732 131.883 30.4894C131.996 30.5065 132.095 30.5141 132.18 30.5122C132.266 30.5103 132.34 30.5037 132.403 30.4894C132.464 30.4761 132.518 30.4599 132.561 30.4409C132.703 30.0823 132.776 29.9035 132.923 29.5458C132.482 29.4031 132.261 29.3347 131.816 29.1996C131.941 28.8819 132.004 28.723 132.132 28.4063C133.075 28.6935 133.542 28.8448 134.463 29.1653C134.104 29.9853 133.929 30.3971 133.588 31.2228Z" fill="white"/>
<path d="M139.942 31.6625C139.74 32.0391 139.504 32.3511 139.238 32.6013C138.971 32.8515 138.687 33.0369 138.382 33.1587C138.079 33.2786 137.761 33.3375 137.426 33.3318C137.091 33.3261 136.755 33.2538 136.415 33.1159C136.074 32.977 135.786 32.7953 135.551 32.568C135.314 32.3407 135.136 32.0791 135.019 31.7861C134.902 31.4931 134.848 31.1678 134.865 30.813C134.882 30.4601 134.976 30.0854 135.152 29.6935C135.192 29.6041 135.213 29.5584 135.253 29.469C135.429 29.0799 135.654 28.7527 135.921 28.4883C136.189 28.2239 136.488 28.0232 136.814 27.8919C137.143 27.7606 137.49 27.6998 137.856 27.7083C138.223 27.7159 138.588 27.7968 138.955 27.949C139.322 28.1021 139.624 28.3009 139.864 28.5444C140.103 28.7879 140.271 29.0628 140.368 29.3682C140.463 29.6735 140.487 30.0036 140.437 30.3565C140.388 30.7075 140.261 31.0718 140.059 31.4456C140.011 31.5321 139.988 31.5759 139.942 31.6625ZM138.91 30.9215C139.179 30.4002 139.284 29.9579 139.215 29.5955C139.145 29.234 138.91 28.9667 138.507 28.7993C138.108 28.6338 137.724 28.6443 137.37 28.8317C137.016 29.021 136.71 29.3815 136.458 29.9132C136.415 30.0045 136.394 30.0511 136.35 30.1424C136.225 30.4078 136.145 30.6542 136.107 30.8777C136.069 31.1013 136.068 31.3039 136.11 31.4836C136.15 31.6615 136.228 31.8175 136.345 31.9469C136.462 32.0781 136.616 32.1799 136.807 32.2598C137.189 32.4149 137.545 32.4006 137.884 32.2113C138.22 32.0239 138.522 31.6682 138.792 31.146C138.84 31.0565 138.863 31.0118 138.91 30.9215Z" fill="white"/>
<path d="M145.05 34.3266C144.819 34.6852 144.563 34.9772 144.282 35.2036C144.001 35.43 143.71 35.5917 143.403 35.6868C143.097 35.7829 142.785 35.8133 142.461 35.7791C142.137 35.7458 141.82 35.6459 141.501 35.4794C141.185 35.313 140.924 35.1075 140.716 34.8621C140.508 34.6157 140.36 34.3408 140.273 34.0403C140.186 33.7368 140.163 33.4096 140.21 33.0577C140.258 32.7067 140.385 32.3414 140.59 31.9676C140.637 31.881 140.66 31.8373 140.708 31.7507C140.914 31.3797 141.156 31.0716 141.441 30.8309C141.724 30.5893 142.033 30.4171 142.362 30.3144C142.691 30.2117 143.033 30.1784 143.388 30.2174C143.742 30.2573 144.091 30.3667 144.432 30.5503C144.773 30.732 145.05 30.9565 145.258 31.2171C145.468 31.4796 145.607 31.7678 145.672 32.0798C145.736 32.3918 145.729 32.7219 145.649 33.0681C145.569 33.4134 145.413 33.7654 145.182 34.1211C145.129 34.2029 145.102 34.2438 145.05 34.3266ZM144.118 33.5028C144.426 33.0053 144.568 32.5745 144.534 32.2082C144.5 31.843 144.297 31.5567 143.921 31.3569C143.548 31.1572 143.176 31.1372 142.816 31.2941C142.455 31.453 142.128 31.7859 141.837 32.2939C141.786 32.3823 141.762 32.4261 141.711 32.5145C141.566 32.7666 141.466 33.0053 141.408 33.2251C141.35 33.4467 141.333 33.6474 141.356 33.83C141.378 34.0108 141.441 34.1715 141.541 34.3104C141.643 34.4502 141.782 34.5663 141.961 34.6595C142.316 34.8478 142.662 34.8611 143.007 34.7013C143.349 34.5415 143.675 34.2153 143.982 33.7178C144.038 33.6322 144.064 33.5894 144.118 33.5028Z" fill="white"/>
<path d="M144.374 37.0091C145.54 35.1238 146.156 34.1945 147.449 32.3644C148.087 32.7544 148.401 32.9532 149.023 33.3593C149.363 33.581 149.633 33.8387 149.832 34.1298C150.031 34.4218 150.156 34.7272 150.208 35.0506C150.257 35.3702 150.236 35.6993 150.143 36.0322C150.05 36.3651 149.882 36.6905 149.642 37.0072C149.581 37.0871 149.55 37.1271 149.49 37.2079C149.251 37.5256 148.985 37.7767 148.692 37.966C148.4 38.1553 148.091 38.2799 147.774 38.3408C147.453 38.4017 147.128 38.396 146.799 38.3265C146.467 38.2561 146.144 38.1201 145.827 37.9146C145.252 37.5437 144.962 37.3629 144.374 37.0091ZM147.959 33.7807C147.09 34.9935 146.669 35.607 145.857 36.8455C146.047 36.9663 146.142 37.0262 146.331 37.1489C146.718 37.3991 147.092 37.4676 147.463 37.3572C147.835 37.2479 148.18 36.9692 148.507 36.5202C148.568 36.4365 148.599 36.3937 148.661 36.31C148.994 35.8543 149.152 35.4415 149.121 35.0686C149.089 34.6929 148.874 34.3724 148.47 34.1089C148.266 33.9767 148.164 33.911 147.959 33.7807Z" fill="white"/>
<path d="M179.048 77.2213C178.949 77.1772 178.835 77.1114 178.708 77.024C178.58 76.9358 178.45 76.8169 178.312 76.6674C178.175 76.5167 178.039 76.3335 177.903 76.1151C177.767 75.8961 177.64 75.6345 177.524 75.3306C177.387 74.9732 177.316 74.6275 177.31 74.2901C177.306 73.9535 177.369 73.6397 177.5 73.348C177.631 73.055 177.83 72.7915 178.102 72.5573C178.373 72.3225 178.718 72.1319 179.136 71.9829C179.263 71.9389 179.326 71.9159 179.453 71.8719C179.872 71.725 180.271 71.6576 180.646 71.6645C181.021 71.672 181.368 71.7474 181.682 71.8914C181.993 72.0337 182.272 72.2428 182.513 72.5174C182.751 72.7904 182.942 73.1157 183.083 73.4952C183.229 73.8839 183.304 74.2341 183.315 74.5415C183.326 74.8508 183.281 75.1203 183.183 75.3529C183.087 75.5856 182.942 75.7864 182.753 75.9499C182.564 76.1134 182.339 76.2491 182.082 76.3524C181.926 75.8814 181.846 75.6453 181.68 75.1753C181.81 75.1133 181.923 75.0387 182.016 74.9568C182.108 74.8749 182.18 74.776 182.228 74.664C182.274 74.5546 182.297 74.4253 182.291 74.2818C182.287 74.1398 182.25 73.9743 182.183 73.7943C182.025 73.3753 181.756 73.1041 181.381 72.98C181.006 72.8545 180.53 72.8854 179.961 73.0734C179.831 73.1164 179.765 73.1379 179.634 73.1815C179.066 73.3723 178.687 73.6348 178.487 73.9572C178.287 74.2809 178.273 74.6563 178.437 75.0888C178.49 75.2275 178.545 75.3473 178.6 75.4434C178.654 75.5408 178.708 75.6218 178.762 75.6866C178.815 75.7514 178.866 75.8044 178.915 75.8437C178.963 75.8821 179.008 75.9129 179.049 75.9338C179.423 75.8158 179.609 75.7578 179.984 75.6434C179.831 75.2139 179.752 75.0003 179.59 74.572C179.919 74.4661 180.084 74.4135 180.415 74.3103C180.757 75.2188 180.919 75.6742 181.222 76.587C180.349 76.8319 179.914 76.9589 179.048 77.2213Z" fill="white"/>
<path d="M182.683 82.4336C182.26 82.5176 181.868 82.5349 181.506 82.4886C181.144 82.4424 180.824 82.3418 180.542 82.1846C180.262 82.0276 180.022 81.8202 179.824 81.5592C179.625 81.2975 179.479 80.9927 179.383 80.6432C179.287 80.2931 179.257 79.9554 179.297 79.6305C179.335 79.3034 179.435 78.9999 179.598 78.7235C179.762 78.4477 179.989 78.1991 180.283 77.9867C180.574 77.7748 180.931 77.6091 181.351 77.4956C181.447 77.4695 181.496 77.4566 181.592 77.4306C182.009 77.3189 182.407 77.2839 182.78 77.321C183.154 77.3589 183.496 77.4616 183.798 77.6289C184.103 77.7991 184.362 78.0273 184.577 78.3144C184.793 78.6015 184.95 78.9337 185.051 79.3128C185.152 79.6932 185.176 80.0521 185.127 80.3909C185.077 80.7298 184.96 81.0344 184.774 81.3026C184.588 81.57 184.339 81.7982 184.027 81.9845C183.717 82.1695 183.349 82.3036 182.928 82.3859C182.829 82.4043 182.781 82.4145 182.683 82.4336ZM182.649 81.1683C183.229 81.0444 183.646 80.8438 183.893 80.5599C184.14 80.2765 184.211 79.9255 184.1 79.5089C183.99 79.0964 183.749 78.8075 183.385 78.6546C183.019 78.5022 182.545 78.4961 181.968 78.6406C181.868 78.6649 181.818 78.6784 181.719 78.7027C181.431 78.7754 181.186 78.8705 180.984 78.9833C180.782 79.0961 180.62 79.2241 180.502 79.3707C180.384 79.5146 180.307 79.6739 180.274 79.8464C180.241 80.02 180.252 80.2028 180.305 80.401C180.413 80.7936 180.64 81.0588 180.996 81.1987C181.35 81.3384 181.818 81.3447 182.398 81.2201C182.499 81.2007 182.549 81.1898 182.649 81.1683Z" fill="white"/>
<path d="M183.79 88.0912C183.364 88.1418 182.975 88.1302 182.624 88.0578C182.272 87.9855 181.967 87.8646 181.705 87.689C181.443 87.5147 181.229 87.2936 181.06 87.0225C180.89 86.7521 180.777 86.4444 180.717 86.0937C180.658 85.7444 180.664 85.4129 180.734 85.097C180.805 84.7798 180.935 84.4914 181.122 84.2336C181.311 83.9732 181.559 83.7476 181.869 83.5605C182.178 83.374 182.547 83.2393 182.97 83.1592C183.068 83.1409 183.116 83.1306 183.214 83.1123C183.636 83.0348 184.029 83.0258 184.394 83.092C184.759 83.1562 185.083 83.2843 185.365 83.4719C185.647 83.6603 185.88 83.9016 186.065 84.1999C186.248 84.4981 186.372 84.836 186.432 85.2152C186.494 85.5932 186.482 85.9486 186.4 86.2748C186.318 86.6031 186.172 86.8933 185.962 87.1416C185.752 87.3898 185.484 87.5938 185.159 87.7523C184.834 87.9102 184.459 88.0138 184.035 88.0625C183.937 88.0735 183.888 88.0789 183.79 88.0912ZM183.883 86.8504C184.468 86.7717 184.898 86.607 185.17 86.3477C185.441 86.0891 185.546 85.7509 185.478 85.335C185.411 84.9206 185.202 84.622 184.858 84.4446C184.512 84.2677 184.048 84.2279 183.465 84.3264C183.364 84.3438 183.314 84.3526 183.213 84.37C182.924 84.4188 182.672 84.4936 182.461 84.5885C182.249 84.6847 182.078 84.7991 181.946 84.9329C181.816 85.0654 181.726 85.2159 181.675 85.3812C181.626 85.5486 181.617 85.7294 181.651 85.9258C181.716 86.319 181.915 86.5937 182.252 86.7575C182.587 86.9191 183.045 86.9624 183.629 86.883C183.731 86.8711 183.781 86.8644 183.883 86.8504Z" fill="white"/>
<path d="M181.357 89.3004C183.57 88.9993 184.685 88.8821 186.931 88.7136C187.007 89.4527 187.039 89.821 187.091 90.5572C187.12 90.9598 187.078 91.3319 186.966 91.6694C186.854 92.0083 186.686 92.2991 186.459 92.5443C186.234 92.7856 185.958 92.9787 185.636 93.1185C185.313 93.2583 184.952 93.3361 184.553 93.3527C184.452 93.3565 184.402 93.3585 184.301 93.3637C183.902 93.3816 183.54 93.336 183.211 93.2313C182.883 93.1265 182.596 92.9682 182.355 92.7628C182.112 92.5551 181.919 92.3008 181.775 92.0037C181.631 91.7039 181.543 91.3688 181.515 90.9941C181.463 90.3162 181.431 89.9777 181.357 89.3004ZM186.11 90.0069C184.614 90.1093 183.869 90.1752 182.387 90.3372C182.406 90.5606 182.416 90.672 182.432 90.8952C182.467 91.3518 182.639 91.6835 182.952 91.8985C183.265 92.1149 183.697 92.2039 184.254 92.1699C184.358 92.1636 184.41 92.1599 184.515 92.1543C185.081 92.1213 185.507 91.9805 185.785 91.7193C186.066 91.4563 186.192 91.0868 186.157 90.6085C186.139 90.3675 186.13 90.2474 186.11 90.0069Z" fill="white"/>
<path d="M52.4872 39.4382C52.2919 39.4382 52.0937 39.3839 51.9184 39.2679C51.4391 38.953 51.3058 38.311 51.6211 37.8335C51.7736 37.6023 67.3334 14.6337 106.923 12.5039C107.511 12.4383 107.985 12.911 108.015 13.4827C108.047 14.0544 107.607 14.5433 107.035 14.5728C68.4805 16.6483 53.5029 38.7485 53.3552 38.9711C53.156 39.2755 52.8254 39.4382 52.4872 39.4382Z" fill="#2A69A8"/>
<path d="M172.676 39.0739C172.395 39.0739 172.115 38.9531 171.922 38.7191C151.959 14.5481 119.479 14.239 119.153 14.239C118.613 14.238 118.176 13.8005 118.176 13.2621C118.177 12.7247 118.614 12.2871 119.153 12.2871H119.154C119.489 12.2881 152.887 12.6058 173.429 37.4778C173.772 37.8925 173.713 38.508 173.297 38.8514C173.116 38.9997 172.895 39.0739 172.676 39.0739Z" fill="#638AB0"/>
<path d="M26.6221 95.2101C26.604 95.2101 26.585 95.2092 26.5669 95.2073C26.0286 95.1778 25.616 94.7174 25.6455 94.18C27.2938 64.6099 43.7798 45.7666 43.9455 45.5802C44.3038 45.1769 44.9202 45.1407 45.3242 45.4984C45.7282 45.856 45.7644 46.4734 45.4071 46.8757C45.2451 47.0583 29.2061 65.4251 27.5968 94.2884C27.5682 94.8078 27.1366 95.2101 26.6221 95.2101Z" fill="#204E7C"/>
<path d="M101.576 61.3092C99.7793 57.9943 95.1516 47.376 94.1588 47.5254C93.166 47.6747 98.5083 57.8326 101.542 63.8071C102.195 65.0912 103.077 64.0772 101.576 61.3092Z" fill="#082037"/>
</svg>
