<svg width="10" height="20" viewBox="0 0 10 20" fill="none" xmlns="http://www.w3.org/2000/svg">
<path d="M8.33848 19.9999C8.12508 20.0006 7.91423 19.9535 7.72142 19.8621C7.52861 19.7706 7.35874 19.6371 7.2243 19.4714L0.324952 10.9008C0.114855 10.6452 0 10.3246 0 9.9937C0 9.66284 0.114855 9.34224 0.324952 9.08665L7.46714 0.516026C7.7096 0.224316 8.05801 0.0408693 8.43572 0.00604443C8.81344 -0.0287805 9.18952 0.0878684 9.48123 0.330329C9.77294 0.57279 9.95639 0.921202 9.99121 1.29892C10.026 1.67663 9.90939 2.05271 9.66693 2.34442L3.28182 10.0008L9.45266 17.6573C9.62734 17.8669 9.73829 18.1223 9.7724 18.393C9.80651 18.6638 9.76235 18.9386 9.64514 19.1851C9.52793 19.4315 9.34257 19.6392 9.11101 19.7836C8.87944 19.928 8.61136 20.0031 8.33848 19.9999Z" fill="#000"/>
</svg>
