<svg width="25" height="25" viewBox="0 0 25 25" fill="none" xmlns="http://www.w3.org/2000/svg">
<path d="M0.5 25C0.223857 25 0 24.7761 0 24.5V22.4293C0 22.2967 0.0526784 22.1695 0.146447 22.0758L1.92422 20.298C2.23921 19.983 2.77778 20.2061 2.77778 20.6516V24.5C2.77778 24.7761 2.55392 25 2.27778 25H0.5ZM6.05556 25C5.77941 25 5.55556 24.7761 5.55556 24.5V16.8738C5.55556 16.7412 5.60823 16.614 5.702 16.5202L7.47978 14.7424C7.79476 14.4275 8.33333 14.6505 8.33333 15.096V24.5C8.33333 24.7761 8.10948 25 7.83333 25H6.05556ZM11.6111 25C11.335 25 11.1111 24.7761 11.1111 24.5V15.1067C11.1111 14.6597 11.6528 14.4373 11.9669 14.7553L13.7446 16.5553C13.8371 16.6489 13.8889 16.7751 13.8889 16.9067V24.5C13.8889 24.7761 13.665 25 13.3889 25H11.6111ZM17.1667 25C16.8905 25 16.6667 24.7761 16.6667 24.5V16.9085C16.6667 16.7759 16.7193 16.6487 16.8131 16.5549L18.5909 14.7772C18.9059 14.4622 19.4444 14.6853 19.4444 15.1307V24.5C19.4444 24.7761 19.2206 25 18.9444 25H17.1667ZM22.7222 25C22.4461 25 22.2222 24.7761 22.2222 24.5V11.3182C22.2222 11.1856 22.2749 11.0584 22.3687 10.9647L24.1464 9.18688C24.4614 8.8719 25 9.09499 25 9.54044V24.5C25 24.7761 24.7761 25 24.5 25H22.7222ZM0.853553 16.9589C0.538571 17.2739 0 17.0508 0 16.6054V14.096C0 13.9634 0.0526784 13.8362 0.146447 13.7424L9.01511 4.87377C9.40564 4.48325 10.0388 4.48325 10.4293 4.87377L14.9242 9.36867C15.1195 9.56393 15.4361 9.56393 15.6313 9.36867L24.1464 0.853553C24.4614 0.538571 25 0.761654 25 1.20711V3.7165C25 3.84911 24.9473 3.97629 24.8536 4.07006L15.9849 12.9387C15.5944 13.3293 14.9612 13.3293 14.5707 12.9387L10.0758 8.44383C9.88051 8.24857 9.56393 8.24857 9.36867 8.44383L0.853553 16.9589Z" fill="#000"/>
</svg>
