<svg width="16" height="16" viewBox="0 0 16 16" fill="none" xmlns="http://www.w3.org/2000/svg">
<path d="M8.48 1.35333C7.52631 1.28391 6.56885 1.42064 5.67271 1.75424C4.77657 2.08784 3.96277 2.61047 3.28662 3.28662C2.61047 3.96277 2.08784 4.77657 1.75424 5.67271C1.42064 6.56885 1.28391 7.52631 1.35333 8.48C1.59333 12.0067 4.67333 14.6667 8.20667 14.6667H10.6667C11.0333 14.6667 11.3333 14.3667 11.3333 14C11.3333 13.6333 11.0333 13.3333 10.6667 13.3333H8.22C5.73333 13.3333 3.45333 11.72 2.83333 9.31333C1.84 5.44667 5.44 1.84 9.30667 2.84C11.72 3.45333 13.3333 5.73333 13.3333 8.22V8.95333C13.3333 9.48 12.86 10 12.3333 10C11.8067 10 11.3333 9.48 11.3333 8.95333V8.12C11.3333 6.44667 10.1467 4.94 8.49333 4.70667C7.9673 4.62845 7.4302 4.67702 6.92674 4.84834C6.42328 5.01967 5.96803 5.30878 5.59889 5.69161C5.22976 6.07445 4.95741 6.53992 4.80454 7.04929C4.65166 7.55865 4.62268 8.09717 4.72 8.62C4.83692 9.24998 5.13308 9.83287 5.57296 10.2988C6.01284 10.7647 6.57777 11.0938 7.2 11.2467C8.42667 11.5333 9.59333 11.14 10.36 10.36C10.9533 11.1733 12.14 11.6 13.2267 11.1667C14.12 10.8133 14.6667 9.9 14.6667 8.94V8.21333C14.6667 4.67333 12.0067 1.59333 8.48 1.35333ZM8 10C6.89333 10 6 9.10667 6 8C6 6.89333 6.89333 6 8 6C9.10667 6 10 6.89333 10 8C10 9.10667 9.10667 10 8 10Z" fill="#082037"/>
</svg>
