<svg width="25" height="25" viewBox="0 0 25 25" fill="none" xmlns="http://www.w3.org/2000/svg">
<g clip-path="url(#clip0_45_454)">
<path d="M10.4167 17.9583L11.8055 18.6528V14.0764C11.8048 13.8942 11.7324 13.7196 11.6042 13.5903L7.10415 9.02777H17.9097L13.4167 13.5903C13.2884 13.7196 13.216 13.8942 13.2153 14.0764L13.1944 19.4444L14.5833 20.1389V14.3611L19.1528 9.72222C19.3356 9.53678 19.44 9.28812 19.4444 9.02777V8.33333C19.4444 8.14915 19.3713 7.97252 19.241 7.84228C19.1108 7.71205 18.9342 7.63889 18.75 7.63889H6.24999C6.06581 7.63889 5.88917 7.71205 5.75894 7.84228C5.62871 7.97252 5.55554 8.14915 5.55554 8.33333V9.02777C5.55998 9.28812 5.66442 9.53678 5.84721 9.72222L10.4167 14.3611V17.9583Z" fill="#000"/>
</g>
<defs>
<clipPath id="clip0_45_454">
<rect width="25" height="25" fill="white"/>
</clipPath>
</defs>
</svg>
