<svg width="17" height="17" viewBox="0 0 17 17" fill="none" xmlns="http://www.w3.org/2000/svg">
<path d="M6.47557 15.2896C5.30401 14.9398 4.24297 14.2926 3.39574 13.4111C3.66833 13.0878 3.83826 12.6905 3.88378 12.2701C3.9293 11.8496 3.84833 11.4252 3.65125 11.051C3.45417 10.6769 3.14993 10.37 2.77747 10.1697C2.405 9.96947 1.98126 9.88489 1.56045 9.92682C1.46458 9.45723 1.41641 8.97915 1.41666 8.49988C1.41666 7.75967 1.52999 7.04567 1.74107 6.37488H1.77082C2.13199 6.37499 2.48722 6.28306 2.80298 6.10775C3.11875 5.93244 3.38462 5.67954 3.57549 5.37294C3.76637 5.06633 3.87595 4.71614 3.89388 4.35542C3.91182 3.9947 3.83753 3.63537 3.67801 3.31134C4.50839 2.53813 5.51262 1.97607 6.60591 1.67261C6.78383 2.02196 7.05494 2.31528 7.38922 2.52011C7.72351 2.72494 8.10794 2.83331 8.49999 2.83321C8.89204 2.83331 9.27648 2.72494 9.61076 2.52011C9.94505 2.31528 10.2161 2.02196 10.3941 1.67261C11.4874 1.97607 12.4916 2.53813 13.322 3.31134C13.1613 3.63763 13.0871 3.99971 13.1064 4.36291C13.1257 4.72611 13.2379 5.07828 13.4323 5.3857C13.6266 5.69312 13.8966 5.94551 14.2165 6.1187C14.5363 6.2919 14.8952 6.38011 15.2589 6.37488C15.4746 7.06257 15.584 7.77916 15.5833 8.49988C15.5833 8.98863 15.5337 9.46605 15.4395 9.92717C15.0187 9.88524 14.595 9.96983 14.2225 10.1701C13.8501 10.3704 13.5458 10.6772 13.3487 11.0514C13.1516 11.4255 13.0707 11.85 13.1162 12.2704C13.1617 12.6909 13.3316 13.0882 13.6042 13.4115C12.757 14.2929 11.6959 14.9399 10.5244 15.2896C10.3868 14.8608 10.1167 14.4868 9.75283 14.2214C9.389 13.9561 8.95031 13.8131 8.49999 13.8131C8.04967 13.8131 7.61098 13.9561 7.24715 14.2214C6.88332 14.4868 6.61315 14.8608 6.47557 15.2896Z" stroke="#000" stroke-linejoin="round"/>
<path d="M8.49998 10.9791C8.82555 10.9791 9.14793 10.915 9.44872 10.7904C9.7495 10.6658 10.0228 10.4832 10.253 10.253C10.4832 10.0227 10.6658 9.74944 10.7904 9.44865C10.915 9.14787 10.9791 8.82549 10.9791 8.49992C10.9791 8.17435 10.915 7.85197 10.7904 7.55118C10.6658 7.2504 10.4832 6.9771 10.253 6.74688C10.0228 6.51667 9.7495 6.33406 9.44872 6.20947C9.14793 6.08488 8.82555 6.02075 8.49998 6.02075C7.84246 6.02075 7.21188 6.28195 6.74694 6.74688C6.28201 7.21182 6.02081 7.8424 6.02081 8.49992C6.02081 9.15743 6.28201 9.78802 6.74694 10.253C7.21188 10.7179 7.84246 10.9791 8.49998 10.9791V10.9791Z" stroke="#000" stroke-linejoin="round"/>
</svg>
