<svg width="23" height="23" viewBox="0 0 23 23" fill="none" xmlns="http://www.w3.org/2000/svg">
<path d="M4.87601 13.295L4.11001 16.153L1.31001 16.212C0.463288 14.6351 0.0134182 12.8758 -0.000694959 11.086C-0.0148081 9.29626 0.40726 7.53001 1.22901 5.94L3.72101 6.397L4.81401 8.873C4.32312 10.3092 4.34503 11.8711 4.87601 13.293V13.295Z" fill="#FBBB00"/>
<path d="M21.808 8.94499C22.1809 10.9063 22.013 12.9322 21.3222 14.8053C20.6315 16.6785 19.444 18.3283 17.887 19.578L14.748 19.418L14.304 16.645C15.6002 15.8852 16.5961 14.7033 17.125 13.297H11.243V8.94499H21.809H21.808Z" fill="#518EF8"/>
<path d="M17.886 19.578C16.6275 20.5887 15.1619 21.3101 13.5933 21.691C12.0247 22.0718 10.3915 22.1027 8.80957 21.7816C7.22767 21.4604 5.73583 20.795 4.43991 19.8327C3.144 18.8703 2.07576 17.6345 1.311 16.213L4.87601 13.295C5.21067 14.1872 5.7362 14.9955 6.41583 15.6634C7.09546 16.3313 7.91279 16.8426 8.81066 17.1617C9.70853 17.4807 10.6653 17.5998 11.614 17.5106C12.5626 17.4213 13.4804 17.1259 14.303 16.645L17.886 19.578Z" fill="#28B446"/>
<path d="M18.021 2.532L14.458 5.45C13.6232 4.92999 12.6819 4.60492 11.7042 4.49898C10.7264 4.39303 9.7373 4.50895 8.81052 4.83809C7.88373 5.16723 7.0431 5.70113 6.35117 6.40006C5.65923 7.09899 5.13382 7.94495 4.81402 8.875L1.23102 5.941C1.9867 4.48165 3.05978 3.21017 4.37139 2.21999C5.68299 1.22981 7.19979 0.546101 8.81033 0.219101C10.4209 -0.107899 12.0842 -0.0698769 13.6781 0.330372C15.272 0.730622 16.756 1.48293 18.021 2.532Z" fill="#F14336"/>
</svg>
