<svg width="25" height="25" viewBox="0 0 25 25" fill="none" xmlns="http://www.w3.org/2000/svg">
<path d="M12.5 6.25C11.4136 6.25138 10.3721 6.68356 9.60386 7.45177C8.83565 8.21998 8.40346 9.2615 8.40208 10.3479H10.4854C10.4854 9.23646 11.3896 8.33333 12.5 8.33333C13.6104 8.33333 14.5146 9.23646 14.5146 10.3479C14.5146 10.9708 14.0135 11.4229 13.2479 12.0417C12.9978 12.2376 12.7576 12.4458 12.5281 12.6656C11.4885 13.7042 11.4583 14.8073 11.4583 14.9302V15.625H13.5417L13.5406 14.9656C13.5417 14.949 13.575 14.5635 14 14.1396C14.1563 13.9833 14.3531 13.8271 14.5573 13.6625C15.3688 13.0052 16.5969 12.0125 16.5969 10.3479C16.596 9.26152 16.1642 8.21983 15.3961 7.45153C14.628 6.68323 13.5864 6.2511 12.5 6.25ZM11.4583 16.6667H13.5417V18.75H11.4583V16.6667Z" fill="#082037"/>
<path d="M12.5 2.08325C6.75625 2.08325 2.08333 6.75617 2.08333 12.4999C2.08333 18.2437 6.75625 22.9166 12.5 22.9166C18.2437 22.9166 22.9167 18.2437 22.9167 12.4999C22.9167 6.75617 18.2437 2.08325 12.5 2.08325ZM12.5 20.8333C7.9052 20.8333 4.16666 17.0947 4.16666 12.4999C4.16666 7.90513 7.9052 4.16659 12.5 4.16659C17.0948 4.16659 20.8333 7.90513 20.8333 12.4999C20.8333 17.0947 17.0948 20.8333 12.5 20.8333Z" fill="#082037"/>
</svg>
