<svg width="25" height="20" viewBox="0 0 15 15" fill="none" xmlns="http://www.w3.org/2000/svg">
<path fill-rule="evenodd" clip-rule="evenodd" d="M1.5402 2.94718L0.400284 1.80732C0.367507 1.77446 0.325711 1.75207 0.280195 1.743C0.234678 1.73392 0.187492 1.73856 0.144617 1.75633C0.101742 1.77411 0.065109 1.80421 0.0393631 1.84282C0.0136172 1.88144 -8.2665e-05 1.92683 3.75278e-07 1.97324V5.39093C3.75278e-07 5.52029 0.104993 5.62528 0.234359 5.62528H3.65224C3.69865 5.62536 3.74404 5.61166 3.78266 5.58591C3.82128 5.56017 3.85138 5.52354 3.86915 5.48067C3.88693 5.43779 3.89157 5.39061 3.88249 5.3451C3.87341 5.29958 3.85102 5.25779 3.81816 5.22501L2.54513 3.95205C3.37498 2.79312 4.5849 1.96178 5.96438 1.6027C7.34386 1.24361 8.80558 1.37949 10.0952 1.98671C11.3849 2.59393 12.4208 3.63404 13.0227 4.92608C13.6247 6.21813 13.7546 7.68031 13.3899 9.05823C13.0251 10.4362 12.1888 11.6426 11.0264 12.4677C9.86406 13.2927 8.44919 13.6842 7.02801 13.5739C5.60683 13.4636 4.26929 12.8586 3.24811 11.8641C2.22693 10.8696 1.58676 9.54859 1.43896 8.1309C1.41982 7.94531 1.32773 7.77493 1.18295 7.65724C1.03818 7.53954 0.852581 7.48418 0.666984 7.50332C0.481387 7.52246 0.310997 7.61455 0.193297 7.75931C0.0755968 7.90408 0.0202286 8.08967 0.0393726 8.27525C0.219723 10.0106 0.999447 11.6287 2.24431 12.8512C3.48918 14.0736 5.12129 14.8238 6.85969 14.9726C8.59809 15.1215 10.334 14.6597 11.7686 13.6667C13.2032 12.6737 14.2466 11.2116 14.7194 9.53221C15.1922 7.85281 15.0646 6.06114 14.3587 4.46565C13.6528 2.87015 12.4128 1.57065 10.852 0.790852C9.29119 0.0110577 7.50736 -0.200237 5.80758 0.193342C4.1078 0.58692 2.59841 1.56075 1.53927 2.94718H1.5402ZM7.2651 3.75051C7.45157 3.75051 7.6304 3.82458 7.76225 3.95643C7.8941 4.08827 7.96818 4.26709 7.96818 4.45355V7.25819L9.86929 8.01935C10.0368 8.09238 10.1693 8.22777 10.2387 8.39683C10.3081 8.56588 10.309 8.75532 10.2411 8.92499C10.1732 9.09466 10.0419 9.23123 9.87502 9.30575C9.70815 9.38026 9.51881 9.38688 9.34714 9.32418L7.00356 8.3868C6.87323 8.33457 6.76152 8.24452 6.68283 8.12824C6.60414 8.01196 6.56206 7.87479 6.56203 7.73438V4.45355C6.56203 4.26709 6.6361 4.08827 6.76796 3.95643C6.89981 3.82458 7.07864 3.75051 7.2651 3.75051Z" fill="#000"/>
</svg>
