<svg width="22" height="25" viewBox="0 0 22 25" fill="none" xmlns="http://www.w3.org/2000/svg">
<path d="M0.394119 9.80963L9.80992 0.393831C10.0622 0.141661 10.4042 0 10.7609 0C11.1176 0 11.4597 0.141661 11.7119 0.393831L21.1277 9.80963C21.38 10.0618 21.5217 10.4039 21.5218 10.7606V23.6549C21.5218 24.0116 21.3801 24.3538 21.1278 24.606C20.8756 24.8583 20.5335 25 20.1767 25H13.4511V15.5842H8.07068V25H1.34511C0.988367 25 0.646233 24.8583 0.393975 24.606C0.141717 24.3538 0 24.0116 0 23.6549V10.7606C7.61838e-05 10.4039 0.141843 10.0618 0.394119 9.80963Z" fill="#000"/>
</svg>
