<svg width="20" height="20" viewBox="0 0 20 20" fill="none" xmlns="http://www.w3.org/2000/svg">
<g clip-path="url(#clip0_92_677)">
<path fill-rule="evenodd" clip-rule="evenodd" d="M10 0.833252C4.93754 0.833252 0.833374 4.93742 0.833374 9.99992C0.833374 15.0624 4.93754 19.1666 10 19.1666C15.0625 19.1666 19.1667 15.0624 19.1667 9.99992C19.1667 4.93742 15.0625 0.833252 10 0.833252ZM6.66671 9.16659C6.44569 9.16659 6.23373 9.25438 6.07745 9.41066C5.92117 9.56694 5.83337 9.77891 5.83337 9.99992C5.83337 10.2209 5.92117 10.4329 6.07745 10.5892C6.23373 10.7455 6.44569 10.8333 6.66671 10.8333H13.3334C13.5544 10.8333 13.7664 10.7455 13.9226 10.5892C14.0789 10.4329 14.1667 10.2209 14.1667 9.99992C14.1667 9.77891 14.0789 9.56694 13.9226 9.41066C13.7664 9.25438 13.5544 9.16659 13.3334 9.16659H6.66671Z" fill="#000"/>
</g>
<defs>
<clipPath id="clip0_92_677">
<rect width="20" height="20" fill="white"/>
</clipPath>
</defs>
</svg>
