<svg width="16" height="16" viewBox="0 0 16 16" fill="none" xmlns="http://www.w3.org/2000/svg">
<path d="M13.3334 8C13.3334 7.26467 12.7354 6.66667 12 6.66667H11.3334V4.66667C11.3334 2.82867 9.83802 1.33334 8.00002 1.33334C6.16202 1.33334 4.66669 2.82867 4.66669 4.66667V6.66667H4.00002C3.26469 6.66667 2.66669 7.26467 2.66669 8V13.3333C2.66669 14.0687 3.26469 14.6667 4.00002 14.6667H12C12.7354 14.6667 13.3334 14.0687 13.3334 13.3333V8ZM6.00002 4.66667C6.00002 3.564 6.89735 2.66667 8.00002 2.66667C9.10269 2.66667 10 3.564 10 4.66667V6.66667H6.00002V4.66667Z" fill="#082037"/>
</svg>
