<svg width="12" height="15" viewBox="0 0 12 15" fill="none" xmlns="http://www.w3.org/2000/svg">
<path d="M4.33384 9.575V2.5C4.33384 2.36739 4.28012 2.24021 4.1845 2.14645C4.08889 2.05268 3.9592 2 3.82398 2C3.68876 2 3.55907 2.05268 3.46345 2.14645C3.36784 2.24021 3.31412 2.36739 3.31412 2.5V9.575C2.90334 9.6951 2.55038 9.95619 2.31976 10.3105C2.08914 10.6649 1.99628 11.0887 2.05817 11.5047C2.12005 11.9206 2.33254 12.3009 2.65678 12.5758C2.98101 12.8507 3.39534 13.0021 3.82398 13.0021C4.25262 13.0021 4.66694 12.8507 4.99118 12.5758C5.31542 12.3009 5.52791 11.9206 5.58979 11.5047C5.65168 11.0887 5.55882 10.6649 5.3282 10.3105C5.09758 9.95619 4.74461 9.6951 4.33384 9.575ZM3.82398 12C3.67272 12 3.52485 11.956 3.39909 11.8736C3.27332 11.7912 3.17529 11.6741 3.11741 11.537C3.05952 11.4 3.04438 11.2492 3.07389 11.1037C3.10339 10.9582 3.17623 10.8246 3.28319 10.7197C3.39015 10.6148 3.52642 10.5434 3.67478 10.5144C3.82313 10.4855 3.9769 10.5003 4.11665 10.5571C4.2564 10.6139 4.37584 10.71 4.45988 10.8333C4.54391 10.9567 4.58877 11.1017 4.58877 11.25C4.58877 11.4489 4.50819 11.6397 4.36477 11.7803C4.22134 11.921 4.02681 12 3.82398 12ZM7.52683 4.85625C7.47866 4.80973 7.4404 4.75427 7.41429 4.69311C7.38818 4.63195 7.37473 4.56631 7.37473 4.5C7.37473 4.43369 7.38818 4.36805 7.41429 4.30689C7.4404 4.24573 7.47866 4.19027 7.52683 4.14375C7.69255 3.98125 7.88929 3.85235 8.10581 3.76442C8.32233 3.67648 8.55439 3.63123 8.78874 3.63125C9.26148 3.63392 9.7144 3.81786 10.0506 4.14375C10.1211 4.21348 10.205 4.26883 10.2975 4.3066C10.3899 4.34437 10.489 4.36381 10.5892 4.36381C10.6893 4.36381 10.7885 4.34437 10.8809 4.3066C10.9733 4.26883 11.0572 4.21348 11.1277 4.14375C11.2241 4.0501 11.3544 3.99781 11.4901 3.9984C11.6257 3.99898 11.7556 4.05239 11.8511 4.14687C11.9466 4.24136 11.9999 4.36918 11.9993 4.50221C11.9987 4.63524 11.9442 4.7626 11.8479 4.85625C11.6822 5.01875 11.4854 5.14765 11.2689 5.23558C11.0524 5.32352 10.8203 5.36877 10.586 5.36875C10.1133 5.36608 9.66033 5.18214 9.32409 4.85625C9.25358 4.78652 9.16969 4.73117 9.07726 4.6934C8.98483 4.65563 8.88569 4.63619 8.78555 4.63619C8.68542 4.63619 8.58627 4.65563 8.49384 4.6934C8.40141 4.73117 8.31752 4.78652 8.24701 4.85625C8.15143 4.94976 8.02193 5.00227 7.88692 5.00227C7.75191 5.00227 7.62242 4.94976 7.52683 4.85625ZM11.8479 6.64375C11.8961 6.69027 11.9343 6.74573 11.9604 6.80689C11.9866 6.86805 12 6.93369 12 7C12 7.06631 11.9866 7.13195 11.9604 7.19311C11.9343 7.25427 11.8961 7.30973 11.8479 7.35625C11.6822 7.51875 11.4854 7.64765 11.2689 7.73558C11.0524 7.82352 10.8203 7.86877 10.586 7.86875C10.1133 7.86608 9.66033 7.68214 9.32409 7.35625C9.25358 7.28652 9.16969 7.23117 9.07726 7.1934C8.98483 7.15563 8.88569 7.13619 8.78555 7.13619C8.68542 7.13619 8.58627 7.15563 8.49384 7.1934C8.40141 7.23117 8.31752 7.28652 8.24701 7.35625C8.15066 7.4499 8.02033 7.50219 7.88467 7.5016C7.74901 7.50102 7.61915 7.44761 7.52365 7.35313C7.42815 7.25864 7.37483 7.13082 7.37543 6.99779C7.37603 6.86476 7.43049 6.7374 7.52683 6.64375C7.69255 6.48125 7.88929 6.35235 8.10581 6.26442C8.32233 6.17648 8.55439 6.13123 8.78874 6.13125C9.26148 6.13392 9.7144 6.31786 10.0506 6.64375C10.1211 6.71348 10.205 6.76883 10.2975 6.8066C10.3899 6.84437 10.489 6.86381 10.5892 6.86381C10.6893 6.86381 10.7885 6.84437 10.8809 6.8066C10.9733 6.76883 11.0572 6.71348 11.1277 6.64375C11.2233 6.55024 11.3528 6.49773 11.4878 6.49773C11.6228 6.49773 11.7523 6.55024 11.8479 6.64375ZM6.37328 8.45625V2.5C6.37328 1.83696 6.10469 1.20107 5.62661 0.732233C5.14852 0.263392 4.5001 0 3.82398 0C3.14786 0 2.49944 0.263392 2.02135 0.732233C1.54327 1.20107 1.27468 1.83696 1.27468 2.5V8.45625C0.87193 8.80632 0.549918 9.23657 0.33012 9.71832C0.110323 10.2001 -0.00220798 10.7222 3.28189e-05 11.25C3.28189e-05 12.2446 0.402912 13.1984 1.12004 13.9017C1.83717 14.6049 2.80981 15 3.82398 15C4.83815 15 5.81079 14.6049 6.52792 13.9017C7.24505 13.1984 7.64793 12.2446 7.64793 11.25C7.65017 10.7222 7.53764 10.2001 7.31784 9.71832C7.09804 9.23657 6.77603 8.80632 6.37328 8.45625ZM3.82398 14C3.08025 14 2.36699 13.7103 1.84109 13.1945C1.3152 12.6788 1.01975 11.9793 1.01975 11.25C1.01767 10.8363 1.11189 10.4276 1.29523 10.055C1.47857 9.68246 1.74619 9.35582 2.07771 9.1C2.14475 9.05316 2.19939 8.99129 2.23709 8.91953C2.27478 8.84777 2.29443 8.76822 2.2944 8.6875V2.5C2.2944 2.10218 2.45555 1.72064 2.7424 1.43934C3.02926 1.15804 3.41831 1 3.82398 1C4.22965 1 4.6187 1.15804 4.90555 1.43934C5.19241 1.72064 5.35356 2.10218 5.35356 2.5V8.6875C5.3543 8.76653 5.37367 8.84433 5.41015 8.9148C5.44664 8.98528 5.49925 9.04652 5.56388 9.09375C6.02043 9.44815 6.35317 9.93313 6.51591 10.4814C6.67865 11.0296 6.66333 11.614 6.47207 12.1533C6.28081 12.6926 5.9231 13.1602 5.44857 13.4911C4.97405 13.822 4.40625 13.9999 3.82398 14Z" fill="#000"/>
</svg>
