<svg width="20" height="24" viewBox="0 0 20 24" fill="none" xmlns="http://www.w3.org/2000/svg">
<path d="M8.18855 17.8058C8.1883 18.2134 8.0849 18.6138 7.88873 18.9667C7.69256 19.3195 7.41054 19.6125 7.071 19.8162C6.73147 20.0198 6.34637 20.1269 5.95442 20.1268C5.56246 20.1266 5.17745 20.0192 4.83807 19.8152C4.49869 19.6113 4.2169 19.3181 4.021 18.965C3.8251 18.612 3.72201 18.2115 3.72207 17.8039C3.72213 17.3963 3.82535 16.9959 4.02136 16.6429C4.21736 16.2899 4.49925 15.9968 4.83869 15.7929V5.03206C4.83869 4.72408 4.95634 4.42872 5.16574 4.21094C5.37515 3.99316 5.65917 3.87082 5.95531 3.87082C6.25146 3.87082 6.53548 3.99316 6.74488 4.21094C6.95429 4.42872 7.07193 4.72408 7.07193 5.03206V15.7929C7.41164 15.9969 7.69369 16.2903 7.88971 16.6437C8.08574 16.997 8.18881 17.3978 8.18855 17.8058ZM13.7903 8.17711C13.8587 8.10425 13.9405 8.04635 14.0308 8.00683C14.1211 7.9673 14.2181 7.94694 14.316 7.94694C14.414 7.94694 14.5109 7.9673 14.6012 8.00683C14.6915 8.04635 14.7733 8.10425 14.8418 8.17711C15.4027 8.75447 16.1601 9.07832 16.9494 9.07832C17.7386 9.07832 18.496 8.75447 19.057 8.17711C19.2668 7.95895 19.3846 7.66307 19.3846 7.35456C19.3846 7.04604 19.2668 6.75016 19.057 6.53201C18.8472 6.31385 18.5627 6.1913 18.2661 6.1913C17.9694 6.1913 17.6849 6.31385 17.4751 6.53201C17.4067 6.60487 17.3249 6.66276 17.2346 6.70228C17.1443 6.74181 17.0473 6.76217 16.9494 6.76217C16.8514 6.76217 16.7544 6.74181 16.6642 6.70228C16.5739 6.66276 16.4921 6.60487 16.4236 6.53201C16.1471 6.2438 15.8185 6.01515 15.4569 5.85914C15.0952 5.70313 14.7075 5.62283 14.316 5.62283C13.9245 5.62283 13.5368 5.70313 13.1751 5.85914C12.8135 6.01515 12.485 6.2438 12.2084 6.53201C11.9986 6.75016 11.8808 7.04604 11.8808 7.35456C11.8808 7.66307 11.9986 7.95895 12.2084 8.17711C12.4182 8.39526 12.7027 8.51782 12.9993 8.51782C13.296 8.51782 13.5805 8.39526 13.7903 8.17711ZM17.4751 10.4028C17.4067 10.4757 17.3249 10.5336 17.2346 10.5731C17.1443 10.6126 17.0473 10.633 16.9494 10.633C16.8514 10.633 16.7544 10.6126 16.6642 10.5731C16.5739 10.5336 16.4921 10.4757 16.4236 10.4028C16.1471 10.1146 15.8185 9.88597 15.4569 9.72996C15.0952 9.57395 14.7075 9.49365 14.316 9.49365C13.9245 9.49365 13.5368 9.57395 13.1751 9.72996C12.8135 9.88597 12.485 10.1146 12.2084 10.4028C11.9986 10.621 11.8808 10.9169 11.8808 11.2254C11.8808 11.5339 11.9986 11.8298 12.2084 12.0479C12.4182 12.2661 12.7027 12.3886 12.9993 12.3886C13.296 12.3886 13.5805 12.2661 13.7903 12.0479C13.8587 11.9751 13.9405 11.9172 14.0308 11.8776C14.1211 11.8381 14.2181 11.8178 14.316 11.8178C14.414 11.8178 14.5109 11.8381 14.6012 11.8776C14.6915 11.9172 14.7733 11.9751 14.8418 12.0479C15.4027 12.6253 16.1601 12.9491 16.9494 12.9491C17.7386 12.9491 18.496 12.6253 19.057 12.0479C19.2668 11.8298 19.3846 11.5339 19.3846 11.2254C19.3846 10.9169 19.2668 10.621 19.057 10.4028C18.8472 10.1847 18.5627 10.0621 18.2661 10.0621C17.9694 10.0621 17.6849 10.1847 17.4751 10.4028ZM10.794 14.1962C11.4325 15.1217 11.8132 16.2124 11.8943 17.3483C11.9754 18.4843 11.7536 19.6214 11.2535 20.6348C10.7533 21.6482 9.99413 22.4985 9.0594 23.0922C8.12467 23.6859 7.0506 24 5.95531 24C4.86003 24 3.78596 23.6859 2.85123 23.0922C1.9165 22.4985 1.15731 21.6482 0.657159 20.6348C0.15701 19.6214 -0.0647269 18.4843 0.0163345 17.3483C0.097396 16.2124 0.478115 15.1217 1.11662 14.1962V5.03206C1.11662 3.69748 1.62641 2.41755 2.53384 1.47386C3.44127 0.530162 4.67201 0 5.95531 0C7.23861 0 8.46935 0.530162 9.37678 1.47386C10.2842 2.41755 10.794 3.69748 10.794 5.03206V14.1962ZM9.67738 17.8058C9.67444 16.9022 9.3721 16.0273 8.82131 15.3284C8.65303 15.1234 8.56065 14.8626 8.56076 14.593V5.03206C8.56076 4.31344 8.28626 3.62425 7.79764 3.11611C7.30903 2.60796 6.64632 2.32249 5.95531 2.32249C5.26431 2.32249 4.6016 2.60796 4.11298 3.11611C3.62437 3.62425 3.34986 4.31344 3.34986 5.03206V14.593C3.34855 14.8699 3.25295 15.1373 3.08001 15.3478C2.70105 15.8272 2.4385 16.3944 2.31449 17.0015C2.19048 17.6086 2.20865 18.2377 2.36748 18.836C2.5263 19.4342 2.82112 19.984 3.22706 20.4389C3.63301 20.8938 4.13819 21.2405 4.7 21.4499C5.26181 21.6592 5.86378 21.7249 6.45515 21.6416C7.04652 21.5582 7.60995 21.3282 8.09793 20.971C8.58591 20.6137 8.98413 20.1397 9.25902 19.5888C9.5339 19.0379 9.67739 18.4264 9.67738 17.8058Z" fill="#000"/>
</svg>
