<svg width="20" height="20" viewBox="0 0 20 20" fill="none" xmlns="http://www.w3.org/2000/svg">
<g clip-path="url(#clip0_92_675)">
<path fill-rule="evenodd" clip-rule="evenodd" d="M10 0.833252C4.93754 0.833252 0.833374 4.93742 0.833374 9.99992C0.833374 15.0624 4.93754 19.1666 10 19.1666C15.0625 19.1666 19.1667 15.0624 19.1667 9.99992C19.1667 4.93742 15.0625 0.833252 10 0.833252ZM10.8334 13.3333C10.8334 13.5543 10.7456 13.7662 10.5893 13.9225C10.433 14.0788 10.2211 14.1666 10 14.1666C9.77903 14.1666 9.56707 14.0788 9.41079 13.9225C9.25451 13.7662 9.16671 13.5543 9.16671 13.3333V10.8333H6.66671C6.44569 10.8333 6.23373 10.7455 6.07745 10.5892C5.92117 10.4329 5.83337 10.2209 5.83337 9.99992C5.83337 9.7789 5.92117 9.56694 6.07745 9.41066C6.23373 9.25438 6.44569 9.16659 6.66671 9.16659H9.16671V6.66659C9.16671 6.44557 9.25451 6.23361 9.41079 6.07733C9.56707 5.92105 9.77903 5.83325 10 5.83325C10.2211 5.83325 10.433 5.92105 10.5893 6.07733C10.7456 6.23361 10.8334 6.44557 10.8334 6.66659V9.16659H13.3334C13.5544 9.16659 13.7664 9.25438 13.9226 9.41066C14.0789 9.56694 14.1667 9.7789 14.1667 9.99992C14.1667 10.2209 14.0789 10.4329 13.9226 10.5892C13.7664 10.7455 13.5544 10.8333 13.3334 10.8333H10.8334V13.3333Z" fill="#000"/>
</g>
<defs>
<clipPath id="clip0_92_675">
<rect width="20" height="20" fill="white"/>
</clipPath>
</defs>
</svg>
