<svg width="20" height="24" viewBox="0 0 20 24" fill="none" xmlns="http://www.w3.org/2000/svg">
<path d="M11.3656 6.27284C11.5648 6.27284 11.7621 6.23359 11.9462 6.15735C12.1303 6.0811 12.2975 5.96935 12.4384 5.82846C12.5793 5.68758 12.691 5.52033 12.7673 5.33625C12.8435 5.15218 12.8828 4.95489 12.8828 4.75565C12.8828 4.55641 12.8435 4.35912 12.7673 4.17505C12.691 3.99098 12.5793 3.82372 12.4384 3.68284C12.2975 3.54195 12.1303 3.4302 11.9462 3.35395C11.7621 3.27771 11.5648 3.23846 11.3656 3.23846C10.9632 3.23846 10.5773 3.39831 10.2928 3.68284C10.0083 3.96737 9.84841 4.35327 9.84841 4.75565C9.84841 5.15803 10.0083 5.54394 10.2928 5.82846C10.5773 6.11299 10.9632 6.27284 11.3656 6.27284ZM10.6292 7.94086C10.6292 8.14793 10.5469 8.34652 10.4005 8.49295C10.2541 8.63937 10.0555 8.72163 9.84841 8.72163C9.64134 8.72163 9.44274 8.63937 9.29632 8.49295C9.14989 8.34652 9.06763 8.14793 9.06763 7.94086C9.06763 7.73378 9.14989 7.53519 9.29632 7.38877C9.44274 7.24234 9.64134 7.16008 9.84841 7.16008C10.0555 7.16008 10.2541 7.24234 10.4005 7.38877C10.5469 7.53519 10.6292 7.73378 10.6292 7.94086ZM13.1223 9.14751C13.3859 9.14751 13.6386 9.04281 13.825 8.85646C14.0114 8.6701 14.1161 8.41734 14.1161 8.1538C14.1161 7.89025 14.0114 7.63749 13.825 7.45113C13.6386 7.26478 13.3859 7.16008 13.1223 7.16008C12.8588 7.16008 12.606 7.26478 12.4197 7.45113C12.2333 7.63749 12.1286 7.89025 12.1286 8.1538C12.1286 8.41734 12.2333 8.6701 12.4197 8.85646C12.606 9.04281 12.8588 9.14751 13.1223 9.14751Z" fill="#000"/>
<path d="M7.76338 23.8402C3.32539 23.2085 0 20.3339 0 14.1338V2.66173C1.10018 2.66173 1.9963 3.55785 1.98743 4.65803V8.59739C1.98743 8.74822 2.11164 8.87244 2.26247 8.87244C2.4133 8.87244 2.53752 8.74822 2.53752 8.59739V4.65803C2.53752 3.55785 3.43363 2.66173 4.53382 2.66173V14.2225C4.53382 14.3201 4.53382 14.4088 4.54269 14.4976C4.69529 17.5559 9.37817 17.5 9.37817 14.3556V13.7966C9.37817 12.9715 8.97004 12.1907 8.26911 11.756C7.42483 11.227 6.74558 10.4721 6.3083 9.57691C5.95669 8.8544 5.77462 8.06118 5.77596 7.25766V6.28169C5.77596 5.38025 5.96583 4.52228 6.3083 3.74683C6.80017 2.63212 7.60552 1.68446 8.6263 1.01922C9.64707 0.353984 10.8392 -0.000126839 12.0576 3.40805e-08C16.1656 3.40805e-08 19.5016 3.33604 19.5105 7.45285V14.2491C19.5105 19.6347 15.1186 24.0177 9.73307 23.9999C9.07377 23.9888 8.41587 23.9354 7.76338 23.8402ZM7.87873 18.5035V22.0631C7.95592 22.0755 8.03399 22.0862 8.11296 22.0968L8.75887 22.1829C9.07562 22.2068 9.40567 22.2201 9.74815 22.2255C14.1462 22.2343 17.736 18.6499 17.736 14.2491V7.45551C17.7289 4.31467 15.1834 1.77449 12.0576 1.77449C10.8623 1.77449 9.71584 2.24935 8.87057 3.09462C8.02531 3.93988 7.55045 5.0863 7.55045 6.28169V7.25766C7.54971 7.85653 7.70167 8.4457 7.99198 8.9695C8.2823 9.4933 8.70136 9.93443 9.20959 10.2512C10.4615 11.0302 11.1527 12.3983 11.1527 13.7966V14.3556C11.1527 16.3155 9.99125 17.6952 8.52198 18.2577L7.87873 18.5035Z" fill="#000"/>
</svg>
