<svg width="22" height="21" viewBox="0 0 22 21" fill="none" xmlns="http://www.w3.org/2000/svg">
<path d="M22 3.31401C21.2119 3.71603 20.3592 3.97632 19.481 4.08301C20.3823 3.42599 21.0461 2.49438 21.373 1.42801C20.5188 1.98976 19.5523 2.35834 18.541 2.50801C18.1328 2.03731 17.6289 1.65907 17.063 1.39851C16.497 1.13796 15.882 1.00107 15.259 0.997009C14.0095 1.04493 12.8299 1.58641 11.9791 2.50272C11.1282 3.41902 10.6754 4.63536 10.72 5.88501C10.7206 6.25111 10.7598 6.61614 10.837 6.97401C8.96005 6.88847 7.12514 6.3896 5.46326 5.51302C3.80137 4.63644 2.35348 3.40377 1.22299 1.90302C0.653371 2.96874 0.479045 4.2016 0.730865 5.38347C0.982686 6.56534 1.64443 7.62004 2.599 8.36101C1.89238 8.43893 1.18291 8.2416 0.618011 7.81001C0.56011 8.8877 0.877077 9.95222 1.51511 10.8227C2.15314 11.6931 3.07287 12.3158 4.11801 12.585C3.51669 12.8189 2.86013 12.8721 2.229 12.738C2.45509 13.6555 2.97261 14.475 3.70392 15.0734C4.43523 15.6718 5.3409 16.017 6.285 16.057C5.47972 16.8786 4.4872 17.4925 3.39255 17.8463C2.29789 18.2 1.13376 18.283 0 18.088C2.1039 19.4884 4.57269 20.2401 7.10001 20.25C14.422 20.25 20.109 13.86 19.8 5.97601C19.8 5.96701 19.8 5.95802 19.8 5.94902C19.8 5.94002 19.8 5.90702 19.8 5.88802C19.8 5.86902 19.8 5.83901 19.8 5.81401C20.6969 5.1403 21.4458 4.28935 22 3.31401Z" fill="#38A1F3"/>
</svg>
