<svg width="30" height="30" viewBox="0 0 30 30" fill="none" xmlns="http://www.w3.org/2000/svg">
<path d="M15.0019 5.78534H14.9981L4.35748 26.2472L4.3603 26.25H25.6397L25.6415 26.2472L15.0019 5.78534ZM13.9453 11.25H16.0547V19.6875H13.9453V11.25ZM15 24.375C14.7219 24.375 14.45 24.2926 14.2187 24.138C13.9875 23.9835 13.8072 23.7639 13.7008 23.5069C13.5943 23.25 13.5665 22.9672 13.6208 22.6944C13.675 22.4216 13.8089 22.1711 14.0056 21.9744C14.2023 21.7777 14.4529 21.6438 14.7256 21.5895C14.9984 21.5353 15.2812 21.5631 15.5381 21.6696C15.7951 21.776 16.0147 21.9563 16.1692 22.1875C16.3238 22.4188 16.4062 22.6906 16.4062 22.9688C16.4062 23.3417 16.2581 23.6994 15.9944 23.9631C15.7306 24.2269 15.3729 24.375 15 24.375Z" fill="#000"/>
<path d="M27.1875 28.125H2.81249C2.65149 28.1249 2.49322 28.0834 2.35293 28.0044C2.21263 27.9254 2.09505 27.8117 2.01149 27.674C1.92794 27.5364 1.88124 27.3796 1.87588 27.2187C1.87053 27.0578 1.90671 26.8982 1.98093 26.7553L14.1684 3.31782C14.2476 3.1657 14.367 3.03822 14.5137 2.94925C14.6603 2.86028 14.8285 2.81323 15 2.81323C15.1715 2.81323 15.3397 2.86028 15.4863 2.94925C15.633 3.03822 15.7524 3.1657 15.8316 3.31782L28.0191 26.7553C28.0933 26.8982 28.1295 27.0578 28.1241 27.2187C28.1187 27.3796 28.072 27.5364 27.9885 27.674C27.9049 27.8117 27.7873 27.9254 27.6471 28.0044C27.5068 28.0834 27.3485 28.1249 27.1875 28.125ZM4.35937 26.25H25.6406L25.6416 26.2472L15.0019 5.78439H14.9981L4.35749 26.2472L4.35937 26.25Z" fill="#000"/>
</svg>
