<svg width="24" height="16" viewBox="0 0 24 16" fill="none" xmlns="http://www.w3.org/2000/svg">
<path d="M11.229 0.247039C11.6916 -0.0820693 12.3084 -0.0820693 12.771 0.247039C13.7087 0.892757 14.8548 1.33435 16.0009 1.33435C17.1219 1.33435 18.3097 0.884426 19.2266 0.247039C19.7225 -0.107065 20.3976 -0.0779035 20.8602 0.317859C21.4604 0.813605 22.2147 1.1927 22.969 1.36767C23.6858 1.53431 24.1318 2.25085 23.9651 2.96739C23.7984 3.68393 23.0815 4.12968 22.3647 3.96305C21.3437 3.72559 20.4935 3.27567 19.9392 2.92156C18.7306 3.57145 17.3762 4.00054 16.0009 4.00054C14.6714 4.00054 13.4753 3.58811 12.6501 3.21318C12.4084 3.1007 12.1875 2.99238 12 2.8924C11.8125 2.99238 11.5957 3.10486 11.3499 3.21318C10.5247 3.58811 9.32859 4.00054 7.99914 4.00054C6.62385 4.00054 5.26939 3.57145 4.0608 2.92573C3.50235 3.27567 2.65633 3.72975 1.63528 3.96721C0.918457 4.13385 0.201637 3.68809 0.0349346 2.97155C-0.131768 2.25502 0.314161 1.53848 1.03098 1.37184C1.78114 1.1927 2.53964 0.813605 3.1356 0.317859C3.5982 -0.0779035 4.27334 -0.102899 4.76928 0.247039C5.69448 0.884426 6.87807 1.33435 7.99914 1.33435C9.14522 1.33435 10.2913 0.892757 11.229 0.247039ZM12.771 12.2449C13.7087 12.8906 14.8548 13.3322 16.0009 13.3322C17.1219 13.3322 18.3097 12.8823 19.2266 12.2449C19.7225 11.8908 20.3976 11.92 20.8602 12.3157C21.4604 12.8115 22.2147 13.1906 22.969 13.3655C23.6858 13.5322 24.1318 14.2487 23.9651 14.9653C23.7984 15.6818 23.0815 16.1276 22.3647 15.9609C21.3437 15.7235 20.4935 15.2735 19.9392 14.9194C18.7306 15.5693 17.3762 15.9984 16.0009 15.9984C14.6714 15.9984 13.4753 15.586 12.6501 15.211C12.4084 15.0986 12.1875 14.9903 12 14.8903C11.8125 14.9903 11.5957 15.1027 11.3499 15.211C10.5247 15.586 9.32859 15.9984 7.99914 15.9984C6.62385 15.9984 5.26939 15.5693 4.0608 14.9236C3.50235 15.2735 2.65633 15.7276 1.63528 15.9651C0.918457 16.1317 0.201637 15.686 0.0349346 14.9694C-0.131768 14.2529 0.314161 13.5363 1.03098 13.3697C1.78531 13.1947 2.53964 12.8156 3.13977 12.3199C3.60237 11.9283 4.27751 11.8991 4.77345 12.2491C5.69448 12.8823 6.87807 13.3322 7.99914 13.3322C9.14522 13.3322 10.2913 12.8906 11.229 12.2449C11.6916 11.9158 12.3084 11.9158 12.771 12.2449ZM12.771 6.24597C13.7087 6.89169 14.8548 7.33328 16.0009 7.33328C17.1219 7.33328 18.3097 6.88336 19.2266 6.24597C19.7225 5.89187 20.3976 5.92103 20.8602 6.31679C21.4604 6.81254 22.2147 7.19164 22.969 7.36661C23.6858 7.53324 24.1318 8.24978 23.9651 8.96632C23.7984 9.68286 23.0815 10.1286 22.3647 9.96198C21.3437 9.72452 20.4935 9.2746 19.9392 8.9205C18.7306 9.57038 17.3762 9.99947 16.0009 9.99947C14.6714 9.99947 13.4753 9.58705 12.6501 9.21211C12.4084 9.09963 12.1875 8.99132 12 8.89134C11.8125 8.99132 11.5957 9.1038 11.3499 9.21211C10.5247 9.58705 9.32859 9.99947 7.99914 9.99947C6.62385 9.99947 5.26939 9.57038 4.0608 8.92466C3.50235 9.2746 2.65633 9.72869 1.63528 9.96615C0.918457 10.1328 0.201637 9.68703 0.0349346 8.97049C-0.131768 8.25395 0.314161 7.53741 1.03098 7.37077C1.78531 7.1958 2.53964 6.8167 3.13977 6.32096C3.60237 5.9252 4.27751 5.9002 4.77345 6.25014C5.69448 6.88336 6.87807 7.33328 7.99914 7.33328C9.14522 7.33328 10.2913 6.89169 11.229 6.24597C11.6916 5.91686 12.3084 5.91686 12.771 6.24597Z" fill="#000"/>
</svg>
